<?xml version="1.0" standalone="no"?>
<!DOCTYPE svg PUBLIC "-//W3C//DTD SVG 20010904//EN"
 "http://www.w3.org/TR/2001/REC-SVG-20010904/DTD/svg10.dtd">
<svg version="1.0" xmlns="http://www.w3.org/2000/svg"
 width="512.000000pt" height="512.000000pt" viewBox="0 0 512.000000 512.000000"
 preserveAspectRatio="xMidYMid meet">

<g transform="translate(0.000000,512.000000) scale(0.100000,-0.100000)"
fill="#000000" stroke="none">
<path d="M53 3842 c-6 -15 15 -42 33 -42 7 0 23 -15 36 -32 l23 -33 3 -1165
c3 -1244 6 -1165 -39 -1252 -16 -32 -10 -49 38 -105 57 -66 161 -143 195 -143
14 0 39 10 57 22 26 19 195 142 325 238 197 144 453 333 640 472 44 33 99 71
123 85 l44 25 48 -33 c27 -19 102 -75 167 -125 157 -120 241 -174 267 -174 20
1 200 127 347 244 73 58 120 86 145 86 11 0 53 -25 94 -56 129 -98 349 -244
369 -244 19 0 77 39 364 242 121 86 174 118 196 118 19 0 52 -17 97 -51 37
-28 100 -71 139 -97 39 -26 97 -66 130 -89 32 -24 65 -43 74 -43 8 0 30 12 49
26 43 32 61 26 69 -25 6 -38 35 -81 54 -81 5 0 12 -9 15 -20 9 -30 37 -25 107
20 45 28 65 36 70 27 4 -7 8 -55 8 -108 l0 -97 58 -58 c31 -33 113 -99 182
-147 69 -49 154 -110 190 -137 84 -63 105 -63 194 -4 63 42 67 48 60 72 -13
46 -17 2529 -4 2553 10 17 8 24 -9 40 -26 24 -18 46 20 54 22 5 29 12 29 31
l0 24 -301 0 c-329 0 -310 3 -384 -61 -99 -86 -96 -85 -111 -64 -8 11 -19 38
-25 60 -6 22 -16 46 -21 53 -8 9 -83 12 -315 12 l-304 0 -44 -45 c-41 -42 -64
-50 -85 -26 -3 4 -22 18 -42 34 l-37 27 -365 0 -366 0 -47 -35 c-27 -19 -57
-42 -68 -52 -11 -9 -35 -25 -54 -35 -39 -20 -28 -24 -180 74 l-74 48 -359 0
c-356 0 -360 0 -391 -22 -53 -37 -90 -75 -80 -81 10 -7 105 49 111 64 5 12
712 12 712 0 0 -6 -4 -12 -9 -16 -6 -3 -161 -6 -345 -6 l-336 0 -50 -40 c-40
-31 -48 -43 -42 -57 11 -20 4 -45 -9 -36 -5 3 -9 0 -9 -6 0 -6 -4 -9 -9 -6
-17 11 -21 -99 -27 -698 -4 -432 -2 -606 5 -601 6 3 11 21 11 40 0 24 5 35 18
38 16 4 16 5 0 6 -10 0 -18 8 -18 16 0 19 20 19 34 0 14 -19 68 -25 72 -7 1 7
0 9 -2 4 -6 -11 -52 -3 -60 9 -3 5 16 9 41 9 42 0 46 -2 43 -22 -2 -19 1 -22
20 -20 28 4 28 -5 1 -26 -32 -27 -8 -67 27 -44 6 4 13 26 17 50 4 37 3 42 -14
42 -10 0 -19 5 -19 10 0 6 11 10 25 10 17 0 25 -6 26 -17 3 -64 -1 -106 -12
-120 -11 -13 -11 -15 6 -11 18 3 20 12 20 75 l0 71 33 4 c25 3 36 -1 43 -14 5
-10 15 -18 22 -18 7 0 20 -7 31 -15 18 -13 18 -15 -3 -41 -11 -14 -18 -30 -15
-35 6 -10 -2 -11 -58 -11 -21 0 -38 -4 -38 -9 0 -5 60 -9 135 -8 l136 0 52
-38 c29 -20 46 -30 38 -20 -7 9 -41 35 -75 58 -33 22 -96 66 -139 97 l-78 57
2 313 c1 173 5 312 10 312 5 0 10 -30 10 -67 2 -60 3 -64 9 -28 7 38 7 37 9
-20 1 -33 2 -156 2 -273 l0 -212 110 -78 c111 -78 137 -93 125 -74 -5 9 -7
227 -6 786 0 104 3 187 6 184 3 -3 5 -73 5 -156 1 -101 5 -163 14 -188 l14
-39 2 60 c0 33 0 77 -1 98 -1 20 3 37 7 37 6 0 8 -187 6 -447 -3 -337 -1 -443
7 -430 7 10 9 29 6 43 -8 29 -18 27 184 25 90 -1 100 -3 100 -19 0 -26 -35
-55 -57 -48 -10 3 -25 1 -33 -4 -12 -8 -13 -11 -1 -19 16 -10 -3 -26 -19 -16
-5 3 -10 0 -10 -7 0 -7 -17 -28 -37 -47 -32 -28 -33 -30 -9 -16 16 10 63 42
104 71 l73 53 1 303 c1 324 12 642 17 493 5 -173 18 -173 20 0 3 262 13 630
17 634 2 2 4 -326 4 -730 l0 -735 -47 -35 c-27 -20 -88 -64 -138 -99 -49 -35
-159 -115 -243 -178 l-152 -114 -113 84 c-61 47 -147 109 -191 139 -43 30 -88
61 -100 69 -12 8 -39 28 -59 44 l-37 29 2 738 3 738 -29 17 c-16 9 -39 25 -50
35 -12 10 -43 33 -71 53 -27 19 -73 51 -100 70 l-51 35 -488 3 c-386 2 -490 0
-493 -10z m4127 -26 c-15 -14 -177 -26 -359 -26 -79 0 -83 -1 -68 -18 11 -12
13 -22 6 -35 -6 -9 -7 -22 -3 -29 5 -7 3 -8 -7 -3 -11 7 -12 6 -3 -6 6 -8 10
-37 9 -66 -1 -29 1 -50 4 -48 3 2 5 -108 4 -243 -3 -238 7 -965 13 -959 2 2
10 43 13 69 1 6 48 1 60 -7 3 -2 7 -28 9 -58 l3 -56 -43 -3 c-42 -3 -43 -4
-44 -38 -1 -25 -1 -27 3 -8 4 28 22 37 61 30 20 -4 22 -10 23 -76 1 -39 1 -77
0 -85 -2 -7 2 -10 7 -7 5 3 8 41 8 84 l-1 79 73 2 c56 1 73 -2 70 -11 -5 -14
-9 -15 -58 -17 -16 0 -30 -5 -30 -9 0 -5 13 -7 30 -4 43 6 66 -4 50 -23 -9
-11 -9 -15 -1 -15 8 0 11 -20 8 -62 -2 -35 0 -74 4 -88 4 -14 8 101 8 255 2
418 5 514 13 509 5 -3 8 -14 8 -24 0 -13 9 -22 26 -26 16 -4 22 -10 16 -16 -6
-6 -8 -178 -5 -464 l5 -454 -55 37 c-155 106 -339 238 -353 254 -14 16 -14 18
3 28 19 9 19 33 16 795 l-3 785 -25 27 c-14 15 -22 30 -19 35 3 5 125 9 272 9
227 0 264 -2 252 -14z m276 -23 c-8 -15 -15 -21 -16 -13 0 8 -14 -13 -31 -48
-17 -34 -35 -60 -40 -56 -6 3 -8 13 -5 21 4 10 0 13 -16 11 -12 -2 -23 -9 -26
-16 -2 -7 2 -10 10 -7 8 3 13 -3 14 -17 1 -17 -4 -23 -21 -24 -18 -1 -22 4
-22 28 0 21 9 35 31 51 17 12 33 25 34 29 2 4 12 8 23 8 10 0 19 7 19 15 0 14
6 17 27 14 4 0 11 10 15 22 5 12 11 19 14 16 3 -3 -1 -18 -10 -34z m485 16
c-49 -17 -73 -18 -248 -12 -142 4 -196 10 -204 20 -9 11 33 13 247 12 l259 -1
-54 -19z m-3869 -24 c90 -59 114 -83 100 -97 -6 -6 -12 -27 -12 -46 0 -18 -4
-31 -9 -27 -5 3 -8 18 -6 34 3 23 -3 33 -36 57 -22 16 -46 35 -54 42 -7 6 -18
12 -23 12 -5 0 -14 6 -20 13 -9 10 -95 13 -422 11 -227 -1 -414 -4 -416 -7 -2
-2 7 -10 21 -17 14 -7 25 -19 25 -27 0 -21 -17 -15 -39 15 -11 15 -31 37 -43
50 l-23 22 453 0 452 0 52 -35z m2320 18 c35 -38 112 -78 129 -67 11 7 64 -25
55 -33 -3 -4 -14 2 -25 11 -18 17 -20 17 -29 0 -9 -16 -17 -13 -76 32 l-66 49
-354 -5 -354 -5 -31 -27 c-17 -16 -35 -28 -39 -28 -35 0 -71 -121 -54 -182 9
-32 8 -35 -8 -31 -13 4 -17 14 -15 44 1 21 -2 36 -6 33 -5 -3 -9 -42 -9 -87 1
-72 2 -80 15 -64 7 11 12 27 10 38 -2 10 0 19 4 19 4 0 8 -69 9 -152 1 -84 4
-165 8 -180 3 -18 1 -28 -6 -28 -7 0 -8 -6 -1 -19 6 -10 8 -21 4 -24 -3 -4 -4
-37 -3 -74 2 -37 2 -83 1 -100 0 -18 4 -33 10 -33 5 0 7 -5 3 -11 -5 -9 -8
-540 -3 -574 1 -5 5 8 8 30 l6 39 48 0 c26 -1 47 3 47 7 0 14 17 10 18 -3 0
-7 2 -22 4 -33 3 -18 -3 -20 -51 -20 -37 0 -56 -4 -59 -14 -3 -8 0 -11 7 -7 6
4 9 2 5 -7 -3 -8 2 -20 10 -27 13 -10 20 -9 41 4 14 9 23 21 20 26 -4 6 -3 10
2 10 17 0 28 -16 30 -42 1 -28 0 -28 -63 -28 -36 0 -64 4 -64 10 0 6 -4 10
-10 10 -16 0 -11 -18 10 -38 35 -32 110 -84 110 -75 0 4 -21 22 -45 38 -25 17
-45 32 -45 35 0 3 25 3 55 2 30 -2 53 -7 51 -11 -3 -4 -1 -13 5 -21 6 -11 9
-6 9 19 0 39 9 38 12 -2 1 -15 7 -26 13 -24 5 2 9 12 9 21 -2 14 16 16 157 16
137 0 159 -2 159 -16 0 -8 4 -13 8 -10 5 3 7 35 7 73 -1 37 0 62 2 56 3 -7 14
-13 24 -13 11 0 17 4 14 10 -3 5 5 15 19 22 31 13 34 28 6 28 -28 0 -25 25 6
39 23 10 25 9 19 -8 -3 -11 0 -23 6 -27 8 -5 10 -2 7 8 -4 8 -2 21 3 29 7 12
9 11 9 -2 0 -27 25 -42 40 -24 7 8 17 12 22 9 6 -4 8 2 6 12 -2 11 -10 19 -18
19 -8 1 -24 6 -35 12 -19 11 -19 12 5 11 14 -1 31 -6 38 -11 8 -6 18 -5 29 4
15 12 16 12 10 -4 -4 -10 -7 -41 -7 -68 l0 -49 -40 4 c-22 2 -40 0 -40 -5 0
-5 23 -9 50 -9 l50 0 0 44 0 43 42 -7 c22 -4 52 -7 65 -5 17 2 21 -1 13 -10
-7 -9 -5 -16 7 -26 13 -11 17 -11 20 -1 3 6 13 12 24 12 10 0 19 7 19 15 0 31
26 14 27 -17 l1 -33 -89 1 c-49 1 -89 -3 -89 -7 0 -5 41 -9 90 -9 l90 0 0 -28
c0 -16 -6 -35 -12 -43 -13 -15 -93 -69 -103 -69 -4 0 -14 -8 -66 -55 -13 -13
-17 -12 -33 3 -16 16 -17 16 -10 -2 5 -14 -1 -26 -25 -47 -18 -15 -38 -30 -44
-32 -7 -2 -10 -7 -7 -10 3 -3 22 7 43 21 20 15 91 65 158 111 l120 83 -4 217
c-5 271 3 425 20 396 11 -17 13 -13 14 35 2 53 2 53 8 15 3 -22 6 -186 6 -365
l0 -324 -265 -193 c-146 -106 -273 -192 -283 -193 -16 0 -61 29 -209 135 -31
22 -117 83 -192 135 -75 52 -138 101 -141 108 -2 6 -5 341 -5 742 l-1 731 51
37 c28 20 70 51 93 69 l42 32 350 0 c321 1 352 0 367 -16z m-1127 -13 c4 -6
29 -23 57 -39 27 -16 46 -31 41 -34 -5 -3 -32 10 -61 29 -53 36 -71 54 -53 54
5 0 13 -5 16 -10z m2704 -377 c-1 -181 -3 -319 -5 -308 -8 40 -9 635 -1 635 4
0 6 -147 6 -327z m-3759 267 c0 -5 -2 -10 -4 -10 -3 0 -8 5 -11 10 -3 6 -1 10
4 10 6 0 11 -4 11 -10z m3697 -22 c-3 -7 -5 -2 -5 12 0 14 2 19 5 13 2 -7 2
-19 0 -25z m7 -448 c4 -217 6 -412 6 -432 -1 -46 26 -54 33 -10 7 47 10 -143
11 -823 1 -595 3 -663 18 -692 9 -18 12 -33 7 -33 -6 0 -87 55 -180 123 -94
67 -180 129 -192 137 -84 58 -105 78 -95 88 15 15 18 52 6 76 -7 13 -6 21 3
27 9 5 16 2 21 -9 5 -12 7 -9 7 11 1 16 -3 26 -9 22 -6 -4 -10 9 -9 32 1 37 2
37 8 8 14 -58 20 82 19 416 0 180 3 332 6 338 4 6 4 16 0 22 -4 7 -17 -26 -30
-72 -13 -46 -31 -106 -39 -134 -8 -27 -39 -138 -70 -245 -75 -263 -88 -301
-97 -292 -11 11 -112 415 -203 817 -26 114 -37 215 -25 235 5 7 18 -28 33 -91
14 -57 42 -167 62 -244 21 -77 42 -162 48 -190 5 -27 14 -54 20 -60 7 -7 8 -6
3 2 -3 6 -2 14 4 18 5 3 10 -2 10 -12 0 -10 3 -29 7 -42 4 -17 3 -22 -5 -17
-14 8 -15 -10 -2 -39 7 -17 9 -17 9 -2 1 16 28 24 56 17 6 -2 18 -2 28 -2 17
1 22 -9 10 -21 -3 -4 -8 -21 -10 -39 -4 -38 -23 -63 -23 -31 0 28 -10 53 -21
53 -5 0 -9 -8 -9 -18 0 -10 -4 -22 -9 -27 -6 -6 -3 -39 8 -85 17 -73 18 -74
25 -40 5 19 34 116 67 215 32 99 73 232 92 295 33 107 95 291 102 298 2 2 4
-142 6 -320 2 -297 3 -345 9 -418 1 -23 2 -23 10 -5 8 19 9 19 9 -2 1 -12 9
-24 19 -27 9 -3 5 -4 -10 -2 -20 2 -28 -1 -28 -13 0 -14 14 -16 93 -15 85 2
93 0 94 -17 1 -11 -4 -19 -10 -18 -28 3 -36 -3 -42 -31 -4 -17 -11 -30 -16
-30 -5 0 -9 -6 -9 -14 0 -11 -13 -13 -55 -11 -36 1 -55 -2 -55 -9 0 -13 178
-15 198 -2 7 4 12 2 12 -3 0 -6 12 -11 28 -12 26 0 26 -1 5 -9 -13 -5 -23 -14
-23 -20 0 -5 -7 -10 -15 -10 -8 0 -15 -5 -15 -11 0 -6 7 -8 15 -5 10 3 15 1
14 -7 -3 -16 10 -48 28 -69 8 -9 13 -22 12 -30 -1 -7 0 -26 1 -43 l2 -30 8 30
c4 17 6 199 4 405 -6 816 -6 1606 0 1599 2 -2 7 -182 10 -399z m-2019 360 c-3
-5 -11 -10 -16 -10 -6 0 -7 5 -4 10 3 6 11 10 16 10 6 0 7 -4 4 -10z m-528
-52 c-3 -7 -5 -2 -5 12 0 14 2 19 5 13 2 -7 2 -19 0 -25z m-2150 -65 c-2 -16
-4 -3 -4 27 0 30 2 43 4 28 2 -16 2 -40 0 -55z m947 -560 c23 -23 34 64 35
271 1 99 3 182 6 184 2 2 3 -265 1 -594 -2 -576 -1 -600 17 -621 11 -12 17
-25 14 -30 -3 -5 -38 -31 -79 -58 -40 -28 -104 -73 -143 -102 -38 -28 -98 -71
-132 -95 -34 -24 -113 -80 -175 -125 -62 -45 -207 -150 -323 -232 -116 -83
-216 -155 -223 -161 -17 -15 -17 11 1 28 9 10 13 168 18 690 3 372 9 692 14
711 5 24 4 36 -6 42 -11 7 -11 11 -1 17 7 5 13 34 14 78 0 39 3 58 7 44 3 -14
4 -90 1 -170 -3 -80 -2 -194 1 -255 3 -60 5 -323 5 -582 -1 -309 2 -473 9
-473 6 0 9 48 8 127 -4 179 -7 171 75 176 l67 3 -72 2 -71 2 1 38 c2 36 3 37
42 37 30 0 41 4 43 18 4 17 -9 21 -55 17 -13 -1 -23 3 -23 9 0 10 17 15 48 14
16 -1 15 5 -7 42 -10 17 -25 29 -34 27 -21 -3 -15 59 10 92 14 20 27 25 58 26
l40 0 -1 -44 c0 -33 3 -43 13 -39 7 3 10 10 6 17 -4 8 -2 8 7 -1 18 -16 39 -5
33 18 -4 13 0 19 12 19 11 0 15 5 11 15 -6 17 -8 17 119 20 206 4 192 2 197
34 3 22 1 28 -10 23 -12 -4 -12 -1 -3 16 6 11 15 24 21 27 5 3 7 12 4 19 -6
16 70 96 91 96 8 0 12 -6 9 -14 -3 -8 -12 -12 -20 -9 -15 5 -19 -3 -28 -53 -4
-25 1 -37 25 -62 17 -17 27 -36 23 -45 -3 -8 -1 -18 5 -22 11 -6 16 32 12 89
-2 16 2 26 7 22 11 -7 11 12 -1 31 -4 6 -3 14 2 17 5 3 7 15 4 26 -4 14 0 20
11 20 9 0 13 -6 10 -14 -3 -8 -1 -17 5 -21 7 -3 11 2 11 14 0 14 6 21 19 21
18 0 31 18 31 42 0 7 -5 6 -14 -1 -14 -12 -15 -10 -7 28 1 2 8 -2 17 -10 9 -7
13 -21 10 -35 -5 -20 -2 -22 34 -22 22 0 40 3 40 9 0 5 -8 9 -19 9 -26 0 -48
27 -33 42 6 6 8 24 5 39 -3 16 -1 29 4 29 5 0 9 -8 9 -17 -1 -10 4 -18 9 -18
6 0 9 12 8 28 -1 18 3 27 13 27 8 0 12 -4 9 -10 -4 -7 3 -7 20 0 33 12 35 12
35 -1 0 -5 -4 -7 -10 -4 -5 3 -10 1 -10 -4 0 -6 5 -11 10 -11 6 0 10 -40 10
-100 0 -60 4 -100 10 -100 7 0 11 222 12 643 1 573 2 609 9 334 4 -170 10
-311 13 -314z m-444 586 c58 -1 88 -4 67 -6 -25 -3 -37 -9 -34 -17 3 -6 -3
-12 -14 -12 -11 0 -19 3 -19 7 0 4 -16 5 -36 3 -22 -3 -33 -1 -29 6 4 6 -18
10 -62 10 l-69 0 2 -27 c1 -16 3 -165 3 -332 1 -167 4 -301 9 -297 4 4 10 105
13 224 4 167 6 108 7 -251 l2 -469 43 32 c23 18 74 54 112 81 l70 50 -2 282
c0 155 1 289 3 299 3 9 11 19 19 22 13 5 15 -37 15 -308 l0 -314 -87 -63 c-48
-35 -96 -68 -105 -74 -10 -5 -38 -25 -63 -43 l-45 -33 -2 555 c-1 306 -2 582
-3 613 0 52 2 58 24 63 13 3 36 5 50 4 14 -2 73 -3 131 -5z m1293 2 l37 -1 0
-65 c0 -36 -4 -65 -8 -65 -5 0 -8 10 -7 23 1 12 -2 34 -6 50 -5 18 -4 27 4 27
8 0 8 3 0 11 -8 8 -18 6 -36 -6 -17 -10 -42 -16 -69 -14 -52 3 -65 9 -47 20 9
5 -7 8 -41 7 -33 0 -43 -3 -25 -5 48 -7 48 -18 0 -15 -25 2 -42 8 -39 13 3 5
-6 9 -20 9 -18 0 -24 -4 -20 -15 4 -8 11 -15 18 -15 7 0 7 -3 -1 -8 -7 -4 -13
-31 -14 -60 -3 -82 -14 -60 -13 26 1 42 2 79 3 82 1 4 168 5 284 1z m897 -1
c0 -5 -4 -10 -10 -10 -5 0 -10 5 -10 10 0 6 5 10 10 10 6 0 10 -4 10 -10z
m1454 -27 c-4 -28 -3 -34 5 -23 18 26 22 4 6 -34 -9 -20 -22 -60 -29 -88 l-13
-52 -13 67 c-7 37 -16 69 -20 72 -5 3 -6 14 -3 24 3 10 0 22 -6 25 -6 4 -11
11 -11 17 0 17 15 9 31 -18 l17 -26 13 36 c17 48 29 47 23 0z m27 10 c-12 -20
-14 -14 -5 12 4 9 9 14 11 11 3 -2 0 -13 -6 -23z m-3184 -75 c-2 -18 -4 -4 -4
32 0 36 2 50 4 33 2 -18 2 -48 0 -65z m1876 85 c-7 -2 -19 -2 -25 0 -7 3 -2 5
12 5 14 0 19 -2 13 -5z m105 -49 l-3 -39 -5 47 c-3 26 -1 43 3 39 5 -5 7 -26
5 -47z m92 48 c0 -4 -9 -8 -19 -8 -11 0 -17 4 -15 8 3 4 12 8 20 8 8 0 14 -4
14 -8z m-560 -22 c0 -5 -4 -10 -10 -10 -5 0 -10 5 -10 10 0 6 5 10 10 10 6 0
10 -4 10 -10z m-1680 -16 c0 -8 -5 -12 -10 -9 -6 4 -8 11 -5 16 9 14 15 11 15
-7z m1760 6 c0 -5 -2 -10 -4 -10 -3 0 -8 5 -11 10 -3 6 -1 10 4 10 6 0 11 -4
11 -10z m1335 -18 c-3 -3 -11 0 -18 7 -9 10 -8 11 6 5 10 -3 15 -9 12 -12z
m-3235 1 c0 -5 -12 -13 -26 -20 -26 -12 -26 -12 -9 7 18 20 35 26 35 13z
m1101 -53 c-9 -23 -10 -23 -9 10 2 42 12 64 16 35 2 -12 -2 -32 -7 -45z m-234
28 c-3 -8 -6 -5 -6 6 -1 11 2 17 5 13 3 -3 4 -12 1 -19z m-970 -50 c-2 -13 -4
-3 -4 22 0 25 2 35 4 23 2 -13 2 -33 0 -45z m1878 52 c3 -6 -1 -7 -9 -4 -18 7
-21 14 -7 14 6 0 13 -4 16 -10z m-2118 -47 c-3 -10 -5 -2 -5 17 0 19 2 27 5
18 2 -10 2 -26 0 -35z m353 37 c0 -5 -5 -10 -11 -10 -5 0 -7 5 -4 10 3 6 8 10
11 10 2 0 4 -4 4 -10z m1977 -252 c-1 -51 -3 -12 -3 87 0 99 2 141 3 93 2 -48
2 -129 0 -180z m-2057 216 c0 -13 -4 -24 -10 -24 -5 0 -10 14 -10 31 0 17 4
28 10 24 6 -3 10 -17 10 -31z m1430 32 c0 -3 -4 -8 -10 -11 -5 -3 -10 -1 -10
4 0 6 5 11 10 11 6 0 10 -2 10 -4z m-1780 -16 c0 -5 -4 -10 -10 -10 -5 0 -10
5 -10 10 0 6 5 10 10 10 6 0 10 -4 10 -10z m4390 -21 c0 -6 -4 -7 -10 -4 -5 3
-10 11 -10 16 0 6 5 7 10 4 6 -3 10 -11 10 -16z m-3950 -11 c0 -5 -5 -6 -10
-3 -6 4 -18 1 -27 -7 -15 -12 -15 -11 -4 9 11 21 41 22 41 1z m60 12 c0 -5 -5
-10 -11 -10 -5 0 -7 5 -4 10 3 6 8 10 11 10 2 0 4 -4 4 -10z m2295 0 c3 -6 -1
-7 -9 -4 -18 7 -21 14 -7 14 6 0 13 -4 16 -10z m-2195 -10 c0 -5 -4 -10 -10
-10 -5 0 -10 5 -10 10 0 6 5 10 10 10 6 0 10 -4 10 -10z m1725 -1 c11 -17 -1
-21 -15 -4 -8 9 -8 15 -2 15 6 0 14 -5 17 -11z m382 -36 c-3 -10 -5 -2 -5 17
0 19 2 27 5 18 2 -10 2 -26 0 -35z m698 37 c3 -6 -1 -7 -9 -4 -18 7 -21 14 -7
14 6 0 13 -4 16 -10z m592 4 c-3 -3 -12 -4 -19 -1 -8 3 -5 6 6 6 11 1 17 -2
13 -5z m-2941 -33 c-12 -19 -24 -12 -19 10 4 13 9 17 15 11 6 -6 7 -15 4 -21z
m124 25 c0 -3 -4 -8 -10 -11 -5 -3 -10 -1 -10 4 0 6 5 11 10 11 6 0 10 -2 10
-4z m390 -63 c0 -36 -3 -64 -6 -60 -4 3 -6 25 -6 49 1 66 2 78 7 78 3 0 5 -30
5 -67z m-1493 20 c-3 -10 -5 -4 -5 12 0 17 2 24 5 18 2 -7 2 -21 0 -30z m2748
27 c-3 -5 -10 -10 -16 -10 -5 0 -9 5 -9 10 0 6 7 10 16 10 8 0 12 -4 9 -10z
m-2391 -13 c7 4 3 0 -7 -9 -26 -24 -40 -23 -25 2 7 11 15 15 16 10 2 -6 9 -7
16 -3z m706 -2 c0 -8 -2 -15 -4 -15 -2 0 -6 7 -10 15 -3 8 -1 15 4 15 6 0 10
-7 10 -15z m637 -7 c-3 -8 -6 -5 -6 6 -1 11 2 17 5 13 3 -3 4 -12 1 -19z
m-1427 2 c0 -5 -4 -10 -10 -10 -5 0 -10 5 -10 10 0 6 5 10 10 10 6 0 10 -4 10
-10z m195 0 c3 -5 1 -10 -4 -10 -6 0 -11 5 -11 10 0 6 2 10 4 10 3 0 8 -4 11
-10z m635 0 c0 -5 -5 -10 -11 -10 -5 0 -7 5 -4 10 3 6 8 10 11 10 2 0 4 -4 4
-10z m80 -66 c0 -35 -4 -64 -9 -64 -6 0 -9 31 -9 69 2 88 18 83 18 -5z m430
66 c0 -5 -5 -10 -11 -10 -5 0 -7 5 -4 10 3 6 8 10 11 10 2 0 4 -4 4 -10z m57
-22 c-3 -7 -5 -2 -5 12 0 14 2 19 5 13 2 -7 2 -19 0 -25z m1773 16 c0 -8 -5
-12 -10 -9 -6 4 -8 11 -5 16 9 14 15 11 15 -7z m-3665 -4 c3 -5 1 -10 -4 -10
-6 0 -11 5 -11 10 0 6 2 10 4 10 3 0 8 -4 11 -10z m1260 -10 c3 -5 1 -10 -4
-10 -6 0 -11 5 -11 10 0 6 2 10 4 10 3 0 8 -4 11 -10z m772 -22 c-3 -7 -5 -2
-5 12 0 14 2 19 5 13 2 -7 2 -19 0 -25z m305 -6 c-6 -16 -7 -16 -10 1 -2 9 -8
17 -13 17 -6 0 -7 5 -4 10 11 17 35 -9 27 -28z m-1672 24 c0 -3 -4 -8 -10 -11
-5 -3 -10 -1 -10 4 0 6 5 11 10 11 6 0 10 -2 10 -4z m2187 -133 c-2 -27 -3 -5
-3 47 0 52 1 74 3 48 2 -27 2 -69 0 -95z m93 133 c0 -3 -4 -8 -10 -11 -5 -3
-10 -1 -10 4 0 6 5 11 10 11 6 0 10 -2 10 -4z m-2389 -49 c-8 -8 -11 -5 -11 9
0 27 14 41 18 19 2 -9 -1 -22 -7 -28z m74 34 c3 -5 1 -12 -5 -16 -5 -3 -10 1
-10 9 0 18 6 21 15 7z m54 -4 c-52 -36 -78 -60 -74 -67 3 -5 1 -11 -5 -15 -17
-11 -11 24 8 40 49 40 67 53 71 49 2 -2 2 -5 0 -7z m1101 3 c0 -5 -5 -10 -11
-10 -5 0 -7 5 -4 10 3 6 8 10 11 10 2 0 4 -4 4 -10z m625 0 c8 -13 -5 -13 -25
0 -13 8 -13 10 2 10 9 0 20 -4 23 -10z m-2379 -48 c-11 -10 -15 4 -8 28 l7 25
3 -23 c2 -13 1 -26 -2 -30z m430 1 c-11 -11 -17 4 -9 23 7 18 8 18 11 1 2 -10
1 -21 -2 -24z m774 17 c9 -16 8 -18 -5 -14 -8 4 -15 12 -15 20 0 20 7 17 20
-6z m1597 -2 c-3 -8 -6 -5 -6 6 -1 11 2 17 5 13 3 -3 4 -12 1 -19z m190 0 c-3
-8 -6 -5 -6 6 -1 11 2 17 5 13 3 -3 4 -12 1 -19z m-2257 -2 c0 -2 -8 -10 -17
-17 -16 -13 -17 -12 -4 4 13 16 21 21 21 13z m1060 -6 c0 -5 -5 -10 -11 -10
-5 0 -7 5 -4 10 3 6 8 10 11 10 2 0 4 -4 4 -10z m607 -10 c-1 -21 -12 -26 -21
-11 -3 5 -15 7 -26 4 -34 -9 -22 6 13 16 17 5 33 10 34 10 1 1 1 -8 0 -19z
m58 0 c10 -11 16 -20 13 -20 -3 0 -13 9 -23 20 -10 11 -16 20 -13 20 3 0 13
-9 23 -20z m1126 -16 c13 -16 12 -16 -7 -6 -11 6 -27 19 -35 28 -13 16 -12 16
7 6 11 -6 27 -19 35 -28z m-3531 16 c0 -5 -4 -10 -10 -10 -5 0 -10 5 -10 10 0
6 5 10 10 10 6 0 10 -4 10 -10z m2251 -13 c-10 -9 -11 -8 -5 6 3 10 9 15 12
12 3 -3 0 -11 -7 -18z m629 2 c0 -11 -4 -17 -10 -14 -5 3 -10 13 -10 21 0 8 5
14 10 14 6 0 10 -9 10 -21z m91 0 c-34 -7 -61 -3 -61 10 0 3 21 4 48 2 47 -4
47 -4 13 -12z m-2411 1 c0 -5 -5 -10 -11 -10 -5 0 -7 5 -4 10 3 6 8 10 11 10
2 0 4 -4 4 -10z m65 0 c3 -5 -1 -10 -9 -10 -9 0 -16 5 -16 10 0 6 4 10 9 10 6
0 13 -4 16 -10z m1882 -22 c-3 -7 -5 -2 -5 12 0 14 2 19 5 13 2 -7 2 -19 0
-25z m1293 11 c0 -5 -4 -9 -10 -9 -5 0 -10 7 -10 16 0 8 5 12 10 9 6 -3 10
-10 10 -16z m-2654 -1 c4 -7 3 -8 -5 -4 -6 4 -20 2 -29 -6 -15 -12 -16 -11 -3
5 16 20 27 22 37 5z m482 -23 c0 -19 -4 -35 -9 -35 -5 0 -7 10 -5 23 3 12 5
28 5 35 2 28 9 9 9 -23z m1929 -38 c2 -4 -18 6 -46 23 -28 18 -51 36 -51 41 0
10 87 -48 97 -64z m312 70 c-2 -2 -29 -26 -59 -55 -54 -49 -56 -50 -69 -31
-11 19 -10 20 8 14 22 -7 51 14 51 35 0 6 4 9 9 6 4 -3 16 3 26 14 10 11 23
20 28 20 6 0 8 -1 6 -3z m438 -19 c-3 -8 -6 -5 -6 6 -1 11 2 17 5 13 3 -3 4
-12 1 -19z m-3927 -34 c0 -25 -4 -43 -8 -40 -5 3 -8 22 -6 43 3 46 3 43 9 43
3 0 5 -21 5 -46z m210 26 c0 -5 -7 -10 -15 -10 -8 0 -15 5 -15 10 0 6 7 10 15
10 8 0 15 -4 15 -10z m604 -14 c-3 -9 -10 -13 -15 -10 -5 3 -3 11 4 19 15 16
19 13 11 -9z m1141 14 c8 -13 -15 -13 -35 0 -12 8 -11 10 7 10 12 0 25 -4 28
-10z m603 -2 c-3 -7 -15 -14 -27 -16 -17 -3 -22 -9 -18 -23 3 -10 1 -22 -4
-25 -5 -3 -9 1 -9 9 0 8 -7 20 -16 28 -13 11 -11 14 18 25 45 16 60 16 56 2z
m691 -42 c1 -31 -10 -11 -15 26 -3 26 -2 29 5 13 5 -11 10 -29 10 -39z m-3629
34 c0 -5 -4 -10 -10 -10 -5 0 -10 5 -10 10 0 6 5 10 10 10 6 0 10 -4 10 -10z
m3780 0 c0 -5 -4 -10 -10 -10 -5 0 -10 5 -10 10 0 6 5 10 10 10 6 0 10 -4 10
-10z m327 -26 c-15 -14 -27 -21 -27 -17 0 10 44 51 50 46 2 -2 -8 -15 -23 -29z
m133 26 c0 -5 -7 -10 -15 -10 -8 0 -15 5 -15 10 0 6 7 10 15 10 8 0 15 -4 15
-10z m-2920 -31 c0 -10 -4 -19 -9 -19 -5 0 -8 11 -8 25 0 13 3 22 8 19 5 -3 9
-14 9 -25z m1194 -376 c4 -265 2 -404 -4 -408 -6 -4 -8 -10 -5 -15 3 -5 56 27
118 72 l112 80 2 192 c2 340 1 319 18 302 13 -12 15 -56 15 -265 l0 -250 -107
-78 c-58 -43 -118 -88 -132 -100 -25 -22 -25 -21 22 2 26 13 56 34 67 47 16
19 19 20 20 6 0 -10 -5 -18 -12 -18 -9 0 -9 -3 0 -12 7 -7 12 -24 12 -39 l0
-27 -90 -1 -90 -1 0 402 c0 221 3 398 7 394 4 -4 8 -35 9 -69 1 -34 6 -60 11
-57 10 6 11 17 12 149 1 57 3 102 6 100 2 -3 6 -185 9 -406z m1543 375 c-3 -7
-5 -2 -5 12 0 14 2 19 5 13 2 -7 2 -19 0 -25z m-4100 -10 c-3 -7 -5 -2 -5 12
0 14 2 19 5 13 2 -7 2 -19 0 -25z m1283 22 c0 -5 -2 -10 -4 -10 -3 0 -8 5 -11
10 -3 6 -1 10 4 10 6 0 11 -4 11 -10z m1504 -6 c3 -8 2 -12 -4 -9 -6 3 -10 10
-10 16 0 14 7 11 14 -7z m219 2 c4 -10 1 -13 -9 -9 -15 6 -19 23 -5 23 5 0 11
-7 14 -14z m524 0 c58 -47 63 -54 21 -26 -44 28 -56 40 -43 40 3 0 13 -7 22
-14z m-2947 -6 c0 -5 -12 -10 -27 -9 l-28 1 25 8 c14 4 26 8 28 9 1 1 2 -3 2
-9z m159 -19 c-9 -26 -59 -62 -59 -41 0 5 9 12 21 15 14 5 19 13 16 25 -3 12
1 21 12 23 9 3 17 5 18 6 1 0 -3 -12 -8 -28z m1071 8 c0 -6 -4 -7 -10 -4 -5 3
-10 11 -10 16 0 6 5 7 10 4 6 -3 10 -11 10 -16z m1060 6 c-14 -17 -30 -20 -30
-4 0 5 4 8 9 4 5 -3 12 -1 16 5 3 5 9 10 12 10 3 0 0 -7 -7 -15z m-3043 -27
c-3 -7 -5 -2 -5 12 0 14 2 19 5 13 2 -7 2 -19 0 -25z m2443 22 c0 -5 -5 -10
-11 -10 -5 0 -7 5 -4 10 3 6 8 10 11 10 2 0 4 -4 4 -10z m-2373 -22 c-3 -8 -6
-5 -6 6 -1 11 2 17 5 13 3 -3 4 -12 1 -19z m138 12 c3 -5 1 -10 -4 -10 -6 0
-11 5 -11 10 0 6 2 10 4 10 3 0 8 -4 11 -10z m582 -10 c-1 -22 -17 -28 -17 -7
0 12 9 27 16 27 2 0 2 -9 1 -20z m527 -10 c-6 -6 -10 -3 -10 10 0 13 4 16 10
10 7 -7 7 -13 0 -20z m130 15 c11 -8 18 -17 15 -19 -2 -2 -15 4 -28 15 -27 22
-15 26 13 4z m-617 -25 c-17 -24 -80 -70 -96 -70 -6 0 -11 10 -11 23 0 18 2
19 10 7 9 -13 13 -12 28 6 10 11 23 19 29 17 6 -2 19 7 29 22 9 14 19 24 21
21 3 -3 -2 -14 -10 -26z m1713 -3 c0 -5 -4 -5 -10 -2 -5 3 -10 14 -10 23 0 15
2 15 10 2 5 -8 10 -19 10 -23z m1151 16 c13 -16 12 -17 -3 -4 -17 13 -22 21
-14 21 2 0 10 -8 17 -17z m-3431 -3 c0 -5 -2 -10 -4 -10 -3 0 -8 5 -11 10 -3
6 -1 10 4 10 6 0 11 -4 11 -10z m1830 0 c0 -5 -2 -10 -4 -10 -3 0 -8 5 -11 10
-3 6 -1 10 4 10 6 0 11 -4 11 -10z m1100 6 c0 -3 -4 -8 -10 -11 -5 -3 -10 -1
-10 4 0 6 5 11 10 11 6 0 10 -2 10 -4z m660 -11 c0 -8 -4 -15 -10 -15 -5 0
-10 7 -10 15 0 8 5 15 10 15 6 0 10 -7 10 -15z m334 -17 c-8 -13 -20 -9 -45
11 l-24 19 37 -11 c20 -6 34 -15 32 -19z m56 28 c0 -11 -19 -15 -25 -6 -3 5 1
10 9 10 9 0 16 -2 16 -4z m205 -6 c-3 -5 -13 -10 -21 -10 -8 0 -14 5 -14 10 0
6 9 10 21 10 11 0 17 -4 14 -10z m-3705 -15 c-7 -9 -15 -13 -17 -11 -7 7 7 26
19 26 6 0 6 -6 -2 -15z m1240 0 c0 -8 -2 -15 -4 -15 -2 0 -6 7 -10 15 -3 8 -1
15 4 15 6 0 10 -7 10 -15z m1000 -40 c0 -47 -2 -54 -14 -43 -8 7 -10 15 -5 16
5 2 9 11 9 20 0 15 -2 15 -10 2 -7 -11 -10 -7 -10 18 0 20 4 31 10 27 6 -3 10
-1 10 4 0 6 2 11 5 11 3 0 5 -25 5 -55z m-1529 24 c19 -16 20 -18 4 -10 -34
17 -51 31 -39 31 7 0 22 -9 35 -21z m599 11 c0 -5 -2 -10 -4 -10 -3 0 -8 5
-11 10 -3 6 -1 10 4 10 6 0 11 -4 11 -10z m390 -26 c0 -19 -4 -33 -8 -30 -8 5
-4 66 4 66 2 0 4 -16 4 -36z m1544 13 c-2 -7 17 -26 42 -44 38 -26 50 -30 65
-20 17 11 17 12 1 31 -16 18 -16 18 6 7 20 -11 27 -10 45 6 12 10 9 3 -8 -16
-49 -54 -59 -56 -110 -21 -52 36 -88 88 -51 74 8 -3 13 -11 10 -17z m77 6 c13
-16 12 -17 -3 -4 -17 13 -22 21 -14 21 2 0 10 -8 17 -17z m-4059 -18 c3 -14 1
-25 -3 -25 -5 0 -9 11 -9 25 0 14 2 25 4 25 2 0 6 -11 8 -25z m203 15 c3 -5 1
-10 -4 -10 -6 0 -11 5 -11 10 0 6 2 10 4 10 3 0 8 -4 11 -10z m1175 -17 c0 15
5 27 10 27 6 0 10 -6 10 -14 0 -8 3 -23 7 -33 3 -10 3 -15 -2 -11 -4 4 -14 3
-20 -2 -15 -13 -65 24 -65 48 0 12 8 8 30 -13 l30 -29 0 27z m1105 6 c-10 -15
-25 -10 -19 6 4 8 10 12 15 9 5 -3 7 -10 4 -15z m695 14 c0 -5 -17 -22 -37
-40 -29 -26 -40 -30 -51 -20 -8 6 -10 13 -4 15 5 1 8 13 5 25 -2 15 1 12 10
-8 13 -29 14 -29 21 -7 4 12 14 22 22 22 8 0 14 5 14 10 0 6 5 10 10 10 6 0
10 -3 10 -7z m1152 -15 c-7 -7 -12 -8 -12 -2 0 6 3 14 7 17 3 4 9 5 12 2 2 -3
-1 -11 -7 -17z m-1783 -33 c6 -3 11 -1 11 5 0 14 42 9 47 -5 1 -5 -15 -11 -36
-11 -21 -1 -47 -7 -57 -13 -17 -11 -17 -11 3 -6 18 5 22 3 17 -10 -4 -10 -14
-15 -25 -12 -26 7 -24 -8 4 -29 12 -9 15 -14 6 -11 -12 4 -14 -1 -11 -24 3
-22 0 -29 -12 -29 -9 0 -19 -7 -22 -15 -8 -21 -27 -19 -42 5 -11 18 -10 20 8
20 20 0 21 9 4 70 -2 9 2 8 11 -4 8 -11 15 -30 15 -43 0 -15 5 -21 14 -17 18
7 9 48 -15 70 -10 9 -19 22 -19 28 0 6 5 5 12 -2 16 -16 28 -15 28 3 0 8 -5
15 -11 15 -23 0 4 20 29 21 15 0 22 3 15 5 -7 3 -9 12 -6 21 5 14 8 13 14 -4
4 -12 12 -24 18 -28z m21 35 c0 -5 -4 -10 -10 -10 -5 0 -10 5 -10 10 0 6 5 10
10 10 6 0 10 -4 10 -10z m1460 0 c0 -5 -4 -10 -10 -10 -5 0 -10 5 -10 10 0 6
5 10 10 10 6 0 10 -4 10 -10z m456 -18 c-18 -16 -18 -16 -6 6 6 13 14 21 18
18 3 -4 -2 -14 -12 -24z m-4228 -7 c-3 -3 -9 2 -12 12 -6 14 -5 15 5 6 7 -7
10 -15 7 -18z m1212 -22 c0 -2 -11 4 -25 13 -14 9 -25 20 -25 25 0 5 11 -1 25
-13 14 -12 25 -23 25 -25z m510 26 c0 -6 -4 -7 -10 -4 -5 3 -10 11 -10 16 0 6
5 7 10 4 6 -3 10 -11 10 -16z m39 -10 c9 -26 8 -30 -4 -26 -8 4 -12 1 -9 -6 2
-8 -8 -13 -30 -14 -26 -1 -33 2 -29 13 3 8 13 14 23 14 26 0 43 23 28 38 -8 8
-9 12 -1 12 6 0 16 -14 22 -31z m-1884 11 c3 -5 1 -10 -4 -10 -6 0 -11 5 -11
10 0 6 2 10 4 10 3 0 8 -4 11 -10z m4112 -24 c-5 -31 -2 -36 24 -48 25 -11 45
-35 36 -44 -1 -2 -24 11 -50 29 -45 31 -60 50 -34 45 7 -2 13 9 15 25 2 15 6
27 9 27 3 0 3 -16 0 -34z m323 14 c0 -4 -9 -6 -21 -3 -15 4 -17 8 -8 14 14 8
29 3 29 -11z m-4365 -27 c-7 -17 -8 -17 -15 2 -9 24 -2 41 12 27 6 -6 7 -19 3
-29z m1735 15 c0 -6 -6 -5 -15 2 -8 7 -15 14 -15 16 0 2 7 1 15 -2 8 -4 15
-11 15 -16z m133 8 c27 10 20 -12 -8 -24 -25 -11 -34 -32 -15 -32 6 0 10 -4
10 -9 0 -8 -8 -8 -39 -2 -2 1 5 13 14 28 13 19 14 28 6 31 -6 2 -8 8 -5 14 4
7 9 6 14 -1 3 -7 14 -9 23 -5z m1987 4 c0 -5 -2 -10 -4 -10 -3 0 -8 5 -11 10
-3 6 -1 10 4 10 6 0 11 -4 11 -10z m-3370 -23 c28 7 28 -42 0 -57 -14 -8 -20
-8 -20 0 0 6 7 13 15 16 8 4 12 10 9 16 -3 5 -12 7 -20 4 -10 -4 -14 2 -13 17
0 12 3 17 5 11 3 -7 14 -10 24 -7z m3650 -9 c0 -19 -2 -20 -10 -8 -13 19 -13
30 0 30 6 0 10 -10 10 -22z m-4240 2 c0 -3 15 -4 34 -2 18 2 36 -1 40 -6 4 -6
-15 -10 -48 -9 -30 1 -53 5 -50 8 2 4 -2 9 -8 12 -7 3 -3 4 10 4 12 -1 22 -4
22 -7z m1790 -5 c11 -13 10 -14 -4 -9 -9 3 -16 10 -16 15 0 13 6 11 20 -6z
m550 5 c0 -5 -5 -10 -11 -10 -5 0 -7 5 -4 10 3 6 8 10 11 10 2 0 4 -4 4 -10z
m160 -5 c18 -22 5 -30 -19 -13 -12 8 -18 18 -14 21 10 11 19 8 33 -8z m-2354
-22 c-10 -10 -19 5 -10 18 6 11 8 11 12 0 2 -7 1 -15 -2 -18z m2829 17 c-3 -5
-12 -10 -18 -10 -7 0 -6 4 3 10 19 12 23 12 15 0z m905 0 c0 -5 -5 -10 -11
-10 -5 0 -7 5 -4 10 3 6 8 10 11 10 2 0 4 -4 4 -10z m216 -36 c2 -32 1 -34
-11 -17 -8 10 -9 20 -4 24 5 3 7 14 3 25 -4 10 -4 16 1 12 4 -4 9 -24 11 -44z
m-2106 15 c0 -6 -4 -7 -10 -4 -5 3 -10 11 -10 16 0 6 5 7 10 4 6 -3 10 -11 10
-16z m2507 -61 c-2 -18 -4 -6 -4 27 0 33 2 48 4 33 2 -15 2 -42 0 -60z m-2037
57 c4 3 6 -4 3 -15 -7 -25 -16 -18 -19 13 -2 12 0 16 2 9 3 -6 9 -10 14 -7z
m-627 -16 c3 -13 1 -19 -6 -16 -15 5 -22 37 -9 37 5 0 12 -9 15 -21z m61 -17
c-11 -8 -12 -82 -1 -99 4 -6 1 -13 -5 -16 -10 -3 -10 -7 0 -19 10 -13 10 -17
0 -21 -10 -4 -10 -7 1 -15 8 -6 10 -15 5 -23 -5 -8 -7 -21 -6 -30 2 -9 -5 -22
-15 -30 -11 -9 -14 -10 -9 -1 4 6 7 75 7 152 0 129 2 139 16 124 9 -9 12 -19
7 -22z m1839 18 c3 -11 1 -20 -4 -20 -5 0 -9 9 -9 20 0 11 2 20 4 20 2 0 6 -9
9 -20z m51 4 c8 -22 7 -34 -3 -34 -5 0 -11 11 -13 25 -6 28 6 34 16 9z m447
-7 c-10 -9 -11 -8 -5 6 3 10 9 15 12 12 3 -3 0 -11 -7 -18z m-354 7 c-3 -3
-12 -4 -19 -1 -8 3 -5 6 6 6 11 1 17 -2 13 -5z m97 -18 c3 -12 2 -22 -3 -24
-11 -4 -2 -42 9 -42 4 0 8 -10 7 -22 0 -13 4 -32 8 -43 8 -17 7 -18 -7 -8 -8
7 -17 10 -21 7 -3 -3 -3 3 0 15 3 11 2 28 -1 37 -10 25 -38 -3 -30 -29 4 -14
3 -17 -6 -12 -6 4 -10 16 -7 26 3 12 -3 25 -16 34 -19 13 -20 17 -7 25 9 6 16
6 18 0 5 -15 32 -12 32 3 0 17 -21 43 -40 50 -8 2 2 4 22 4 28 -1 38 -6 42
-21z m70 -76 c8 -41 18 -86 21 -100 5 -18 4 -21 -3 -10 -9 14 -52 187 -52 206
1 24 20 -29 34 -96z m321 90 c3 -5 1 -10 -4 -10 -6 0 -11 5 -11 10 0 6 2 10 4
10 3 0 8 -4 11 -10z m-4285 -10 c0 -5 -4 -10 -10 -10 -5 0 -10 5 -10 10 0 6 5
10 10 10 6 0 10 -4 10 -10z m1910 6 c0 -3 -4 -8 -10 -11 -5 -3 -10 -1 -10 4 0
6 5 11 10 11 6 0 10 -2 10 -4z m2313 -43 c-3 -7 -9 -13 -13 -13 -5 0 -15 -3
-24 -6 -9 -3 -16 -2 -16 4 0 5 9 12 20 15 13 3 20 14 21 29 0 21 1 22 8 3 5
-11 6 -26 4 -32z m257 37 c0 -5 -2 -10 -4 -10 -3 0 -8 5 -11 10 -3 6 -1 10 4
10 6 0 11 -4 11 -10z m-4590 -10 c0 -5 -4 -10 -10 -10 -5 0 -10 5 -10 10 0 6
5 10 10 10 6 0 10 -4 10 -10z m80 0 c0 -6 -11 -10 -25 -10 -14 0 -25 4 -25 8
0 4 11 9 25 10 14 1 25 -3 25 -8z m117 -12 c-3 -8 -6 -5 -6 6 -1 11 2 17 5 13
3 -3 4 -12 1 -19z m2353 18 c0 -2 -7 -9 -15 -16 -13 -11 -14 -10 -9 4 5 14 24
23 24 12z m1615 -34 c-8 -9 -25 20 -18 31 3 5 10 2 15 -7 6 -10 7 -20 3 -24z
m-2182 -62 c-2 -52 2 -78 14 -96 8 -13 13 -27 9 -31 -3 -3 -6 -1 -6 6 0 6 -6
11 -12 10 -25 -3 -39 1 -34 10 6 9 11 148 6 166 -5 20 0 27 13 17 8 -7 12 -34
10 -82z m2127 80 c0 -5 -4 -10 -9 -10 -6 0 -13 5 -16 10 -3 6 1 10 9 10 9 0
16 -4 16 -10z m156 -19 c-15 -16 -15 -19 -1 -31 22 -18 11 -24 -14 -8 -26 16
-26 23 0 49 25 25 39 17 15 -10z m165 -18 c-9 -15 -10 -12 -10 17 0 29 1 32
10 18 7 -12 7 -24 0 -35z m-1951 33 c0 -3 -4 -8 -10 -11 -5 -3 -10 -1 -10 4 0
6 5 11 10 11 6 0 10 -2 10 -4z m58 -31 c22 5 24 4 13 -9 -8 -9 -20 -16 -27
-16 -18 0 -18 -11 0 -44 11 -21 11 -32 2 -51 -6 -13 -12 -20 -14 -15 -2 5 -11
6 -20 3 -11 -3 -13 -2 -6 4 14 10 24 62 14 68 -5 3 -7 24 -5 48 4 52 6 58 12
29 4 -20 9 -23 31 -17z m1232 15 c0 -11 -4 -20 -10 -20 -5 0 -10 9 -10 20 0
11 5 20 10 20 6 0 10 -9 10 -20z m439 6 c7 -8 8 -16 3 -18 -13 -5 7 -87 21
-84 7 1 9 1 5 -1 -12 -7 -10 -51 3 -74 6 -12 7 -28 3 -37 -5 -12 -9 -6 -15 23
-5 22 -17 77 -27 123 -18 80 -17 97 7 68z m-2182 -22 c-9 -9 -28 6 -21 18 4 6
10 6 17 -1 6 -6 8 -13 4 -17z m1801 -10 l0 -27 -13 24 c-13 24 -11 44 4 34 5
-2 9 -17 9 -31z m675 16 c4 -17 0 -20 -24 -20 -16 0 -29 5 -29 10 0 6 9 10 20
10 11 0 20 5 20 10 0 17 7 11 13 -10z m-4447 -17 c-7 -7 -26 7 -26 19 0 6 6 6
15 -2 9 -7 13 -15 11 -17z m74 7 c0 -11 -5 -20 -11 -20 -8 0 -8 -5 1 -15 18
-21 5 -45 -25 -45 -29 0 -33 16 -6 25 10 3 18 11 18 18 -1 35 4 57 13 57 6 0
10 -9 10 -20z m1727 -22 c1 -23 8 -45 15 -49 9 -6 9 -9 1 -9 -24 0 -39 28 -35
64 6 49 17 46 19 -6z m2186 27 c4 -8 2 -17 -2 -20 -5 -2 -11 4 -14 15 -6 23 8
27 16 5z m102 5 c3 -5 2 -10 -4 -10 -5 0 -13 5 -16 10 -3 6 -2 10 4 10 5 0 13
-4 16 -10z m-3972 -21 c4 -16 3 -18 -9 -8 -7 6 -11 15 -8 20 8 13 11 11 17
-12z m27 5 c0 -8 -4 -12 -10 -9 -5 3 -10 10 -10 16 0 5 5 9 10 9 6 0 10 -7 10
-16z m2272 -16 c-8 -8 -9 -4 -5 13 4 13 8 18 11 10 2 -7 -1 -18 -6 -23z m-675
-10 c-3 -7 -5 -2 -5 12 0 14 2 19 5 13 2 -7 2 -19 0 -25z m2318 14 c-3 -3 -11
0 -18 7 -9 10 -8 11 6 5 10 -3 15 -9 12 -12z m65 -3 c0 -5 -4 -9 -10 -9 -5 0
-10 7 -10 16 0 8 5 12 10 9 6 -3 10 -10 10 -16z m-4125 -19 c7 0 16 6 18 13 4
7 6 8 6 1 1 -6 -6 -17 -15 -25 -13 -10 -17 -10 -25 2 -5 8 -8 19 -8 24 0 6 3
4 6 -2 2 -7 11 -13 18 -13z m1975 -1 c0 -5 -4 -9 -10 -9 -5 0 -10 7 -10 16 0
8 5 12 10 9 6 -3 10 -10 10 -16z m410 5 c0 -8 -4 -12 -10 -9 -5 3 -10 10 -10
16 0 5 5 9 10 9 6 0 10 -7 10 -16z m1742 -25 c11 -6 17 -13 15 -16 -7 -6 -67
38 -67 50 0 4 7 1 16 -7 8 -9 25 -21 36 -27z m-3982 -4 c0 -18 -26 -20 -36 -3
-4 6 -3 8 4 4 6 -3 13 -2 17 4 9 14 15 12 15 -5z m2279 -6 c-16 -10 -23 -4
-14 10 3 6 11 8 17 5 6 -4 5 -9 -3 -15z m1824 -17 c7 -9 6 -11 -7 -6 -24 9
-33 -24 -10 -41 11 -8 14 -15 8 -15 -21 0 -35 27 -28 57 9 39 17 50 22 33 3
-8 9 -21 15 -28z m142 18 c10 -11 16 -20 13 -20 -3 0 -13 9 -23 20 -10 11 -16
20 -13 20 3 0 13 -9 23 -20z m-2006 -20 c0 -17 -2 -20 -7 -10 -7 16 -25 20
-37 9 -3 -4 -15 -5 -26 -2 -32 9 -2 33 37 30 29 -2 34 -6 33 -27z m1621 10 c0
-11 -2 -20 -4 -20 -2 0 -6 9 -9 20 -3 11 -1 20 4 20 5 0 9 -9 9 -20z m430 0
c0 -11 -4 -20 -8 -20 -4 0 -8 9 -9 20 -1 11 2 20 8 20 5 0 9 -9 9 -20z m-4397
-18 c35 4 51 -6 25 -15 -10 -3 -10 -7 1 -20 12 -15 11 -17 -2 -17 -9 0 -21 9
-28 21 l-11 21 -25 -24 c-26 -23 -26 -23 -14 -1 10 20 9 22 -6 16 -13 -5 -15
-3 -10 11 4 10 7 23 7 29 0 6 6 3 13 -7 10 -14 23 -17 50 -14z m1763 -34 c4
-16 10 -28 15 -28 5 0 9 -5 9 -10 0 -6 -8 -5 -20 2 -11 7 -20 22 -20 32 0 11
-10 31 -22 45 l-23 24 28 -19 c15 -10 30 -31 33 -46z m2289 42 c3 0 3 5 0 10
-3 6 -2 10 4 10 5 0 13 -4 16 -10 3 -5 1 -10 -5 -10 -6 0 -8 -5 -5 -10 4 -6
15 -8 26 -5 22 7 26 -10 4 -19 -8 -3 -15 -16 -15 -28 -1 -21 -2 -21 -11 -5 -5
9 -8 21 -4 26 3 5 -9 21 -27 36 -19 15 -23 22 -11 16 12 -6 24 -11 28 -11z
m-3825 -20 c0 -5 -5 -10 -11 -10 -5 0 -7 5 -4 10 3 6 8 10 11 10 2 0 4 -4 4
-10z m2154 -5 c-4 -8 -8 -15 -10 -15 -2 0 -4 7 -4 15 0 8 4 15 10 15 5 0 7 -7
4 -15z m-80 -37 c5 -20 3 -28 -7 -28 -9 0 -14 12 -14 35 0 39 11 35 21 -7z
m1740 -1 c4 -17 3 -26 -2 -23 -6 3 -12 19 -14 36 -6 37 7 27 16 -13z m297 4
c2 -45 -1 -94 -6 -99 -3 -3 -5 22 -5 54 0 35 -5 65 -12 73 -11 10 -10 11 5 6
10 -4 18 -18 18 -34z m59 -66 c1 -55 -1 -107 -5 -116 -4 -10 0 -19 10 -23 11
-4 15 -1 13 11 -2 10 4 19 13 21 11 2 18 -7 23 -29 7 -39 -15 -70 -45 -62 -18
5 -19 6 -2 19 15 10 16 15 5 26 -11 11 -14 10 -21 -1 -5 -7 -13 -11 -19 -7 -6
3 -14 1 -18 -5 -4 -8 -3 -9 4 -5 7 4 12 5 12 2 0 -3 -5 -8 -10 -11 -6 -4 -16
8 -22 26 -10 28 -12 30 -23 16 -7 -10 -18 -17 -25 -17 -8 0 -2 13 15 30 30 32
46 32 38 0 -3 -12 0 -20 7 -20 6 0 14 9 17 20 3 11 9 20 14 20 5 0 9 8 9 18 0
14 -2 15 -10 2 -8 -12 -10 -11 -10 8 0 12 5 22 10 22 6 0 10 9 10 20 0 11 -4
20 -9 20 -5 0 -9 20 -9 45 1 25 5 45 10 45 4 0 8 8 8 17 0 9 2 14 4 12 3 -3 6
-49 6 -104z m-4296 65 c-5 -5 -16 -5 -24 0 -13 8 -12 10 3 10 9 0 17 6 18 13
0 9 2 8 6 -1 3 -8 1 -18 -3 -22z m2256 20 c0 -5 -4 -10 -10 -10 -5 0 -10 5
-10 10 0 6 5 10 10 10 6 0 10 -4 10 -10z m2115 0 c3 -5 1 -10 -4 -10 -6 0 -11
5 -11 10 0 6 2 10 4 10 3 0 8 -4 11 -10z m-355 -31 c15 -56 19 -89 10 -89 -5
0 -12 21 -16 48 -3 26 -12 53 -18 61 -8 11 -8 13 3 9 8 -2 18 -15 21 -29z
m-3893 -1 c-3 -8 -6 -5 -6 6 -1 11 2 17 5 13 3 -3 4 -12 1 -19z m2163 12 c0
-5 -4 -10 -10 -10 -5 0 -10 5 -10 10 0 6 5 10 10 10 6 0 10 -4 10 -10z m926
-16 c-4 -9 -9 -15 -11 -12 -3 3 -3 13 1 22 4 9 9 15 11 12 3 -3 3 -13 -1 -22z
m-616 0 c0 -8 -5 -12 -10 -9 -6 4 -8 11 -5 16 9 14 15 11 15 -7z m1773 1 c-3
-9 -8 -14 -10 -11 -3 3 -2 9 2 15 9 16 15 13 8 -4z m-2606 -17 c-3 -8 -6 -5
-6 6 -1 11 2 17 5 13 3 -3 4 -12 1 -19z m493 12 c0 -5 -2 -10 -4 -10 -3 0 -8
5 -11 10 -3 6 -1 10 4 10 6 0 11 -4 11 -10z m-2390 -10 c0 -5 -5 -10 -11 -10
-5 0 -7 5 -4 10 3 6 8 10 11 10 2 0 4 -4 4 -10z m60 4 c0 -4 -8 -13 -17 -20
-17 -12 -16 -13 6 -14 19 0 21 -3 12 -14 -12 -14 -61 -10 -61 6 0 22 22 48 40
48 11 0 20 -3 20 -6z m1731 -20 l24 -27 -27 18 c-16 9 -28 21 -28 26 0 14 5
11 31 -17z m579 5 c0 -5 -4 -9 -10 -9 -5 0 -10 7 -10 16 0 8 5 12 10 9 6 -3
10 -10 10 -16z m77 15 c-3 -3 -12 -4 -19 -1 -8 3 -5 6 6 6 11 1 17 -2 13 -5z
m350 -13 c1 -11 -5 -22 -13 -25 -17 -7 -19 15 -2 32 15 15 13 16 15 -7z m1326
-1 c-3 -11 -9 -17 -15 -14 -5 3 -4 12 3 20 16 19 18 18 12 -6z m194 -12 c-3
-7 -5 -2 -5 12 0 14 2 19 5 13 2 -7 2 -19 0 -25z m-4023 -21 c7 -6 6 -7 -4 -4
-8 2 -16 14 -17 28 -1 19 -1 20 4 4 3 -11 10 -24 17 -28z m1652 16 c-10 -10
-19 5 -10 18 6 11 8 11 12 0 2 -7 1 -15 -2 -18z m-26 8 c-1 -10 -30 -46 -30
-36 0 5 -5 4 -12 -3 -21 -21 -32 -13 -12 10 10 12 13 18 7 14 -13 -7 -18 5 -8
16 8 8 55 7 55 -1z m419 -33 c1 -5 -4 -8 -10 -8 -5 0 -8 4 -5 9 4 5 1 11 -6
13 -7 3 -8 9 -3 18 7 11 10 10 16 -6 4 -10 8 -22 8 -26z m391 32 c0 -5 -4 -10
-10 -10 -5 0 -10 5 -10 10 0 6 5 10 10 10 6 0 10 -4 10 -10z m1801 -17 c-12
-20 -14 -14 -5 12 4 9 9 14 11 11 3 -2 0 -13 -6 -23z m-4271 -20 c0 -34 -17
-46 -18 -14 0 17 4 31 9 31 5 0 9 -8 9 -17z m115 7 c3 -5 1 -10 -4 -10 -6 0
-11 5 -11 10 0 6 2 10 4 10 3 0 8 -4 11 -10z m1575 0 c0 -5 -5 -10 -11 -10 -5
0 -7 5 -4 10 3 6 8 10 11 10 2 0 4 -4 4 -10z m460 -5 c0 -8 -4 -15 -10 -15 -5
0 -10 7 -10 15 0 8 5 15 10 15 6 0 10 -7 10 -15z m313 0 c-3 -9 -8 -14 -10
-11 -3 3 -2 9 2 15 9 16 15 13 8 -4z m1622 -35 c10 8 15 9 15 2 0 -10 -31 -32
-44 -32 -3 0 -6 19 -5 43 l1 42 9 -33 c8 -28 12 -32 24 -22z m163 -44 c2 -79
0 -91 -18 -108 -11 -10 -20 -15 -20 -10 0 5 7 15 15 22 11 9 15 33 15 92 0 72
-2 79 -22 88 -23 10 -23 10 2 7 24 -2 25 -4 28 -91z m-3032 24 c8 0 14 -5 14
-10 0 -6 11 -8 25 -4 14 3 25 2 25 -4 0 -5 -9 -12 -20 -15 -17 -4 -19 -11 -14
-31 5 -20 2 -26 -10 -26 -11 0 -15 8 -12 30 2 22 -2 33 -20 45 -18 11 -24 24
-23 48 l1 32 10 -32 c6 -18 17 -33 24 -33z m1324 20 c0 -29 -4 -40 -15 -40
-17 0 -20 16 -5 25 6 3 10 11 10 17 0 6 -9 3 -20 -7 -11 -10 -20 -14 -20 -10
0 8 40 55 47 55 2 0 3 -18 3 -40z m1550 36 c0 -3 -4 -8 -10 -11 -5 -3 -10 -1
-10 4 0 6 5 11 10 11 6 0 10 -2 10 -4z m-4325 -16 c-3 -5 -16 -15 -28 -22 -19
-10 -20 -9 -10 4 7 8 10 18 6 21 -3 4 4 7 16 7 12 0 19 -4 16 -10z m275 -44
c0 -25 -5 -48 -11 -52 -8 -4 -7 -9 2 -15 10 -6 10 -9 2 -9 -17 0 -29 23 -14
28 9 3 9 7 1 18 -7 7 -8 19 -4 26 5 7 7 21 6 31 -2 9 2 17 7 17 6 0 11 -20 11
-44z m1967 26 c-10 -11 -14 -26 -10 -40 3 -12 1 -22 -5 -22 -6 0 -9 12 -8 28
2 15 4 33 5 40 0 6 8 12 18 12 15 0 15 -1 0 -18z m2273 8 c0 -5 -4 -10 -10
-10 -5 0 -10 5 -10 10 0 6 5 10 10 10 6 0 10 -4 10 -10z m-2974 -26 c-4 -14
-2 -32 4 -39 13 -15 10 -50 -4 -50 -5 0 -10 16 -13 35 -4 37 3 80 13 80 4 0 3
-12 0 -26z m1780 0 c-4 -9 -9 -15 -11 -12 -3 3 -3 13 1 22 4 9 9 15 11 12 3
-3 3 -13 -1 -22z m-1418 -9 c-3 -3 -9 2 -12 12 -6 14 -5 15 5 6 7 -7 10 -15 7
-18z m812 5 c0 -5 -8 -10 -17 -10 -15 0 -16 2 -3 10 19 12 20 12 20 0z m-2387
-14 c4 -10 0 -12 -14 -9 -22 6 -26 23 -5 23 8 0 16 -6 19 -14z m1940 -1 c-3
-9 -8 -14 -10 -11 -3 3 -2 9 2 15 9 16 15 13 8 -4z m2184 9 c-3 -3 -12 -4 -19
-1 -8 3 -5 6 6 6 11 1 17 -2 13 -5z m-2852 -54 c8 -24 7 -25 -13 -7 -13 12
-18 26 -14 39 5 22 13 13 27 -32z m745 40 c0 -5 -5 -10 -11 -10 -5 0 -7 5 -4
10 3 6 8 10 11 10 2 0 4 -4 4 -10z m398 -4 c-2 -1 -12 -8 -22 -16 -18 -14 -19
-14 -7 8 7 12 17 20 22 16 6 -3 9 -7 7 -8z m1769 -8 c-3 -8 -6 -5 -6 6 -1 11
2 17 5 13 3 -3 4 -12 1 -19z m-4277 -3 c0 -8 -4 -15 -10 -15 -5 0 -10 7 -10
15 0 8 5 15 10 15 6 0 10 -7 10 -15z m641 -52 c-5 -9 -8 2 -8 29 -1 39 -1 41
7 14 5 -16 6 -36 1 -43z m566 31 l2 -29 -14 25 c-18 31 -19 43 -3 38 7 -3 14
-18 15 -34z m1993 26 c0 -5 -5 -10 -11 -10 -5 0 -7 5 -4 10 3 6 8 10 11 10 2
0 4 -4 4 -10z m41 -8 c-7 -2 -18 1 -23 6 -8 8 -4 9 13 5 13 -4 18 -8 10 -11z
m90 4 c5 3 9 1 9 -5 0 -5 -4 -13 -10 -16 -5 -3 -10 -4 -10 -1 0 2 -2 10 -3 18
-2 7 -2 10 0 5 3 -4 9 -5 14 -1z m-2621 -8 c0 -15 -18 -17 -30 -3 -9 11 -8 14
9 12 12 -1 21 -5 21 -9z m1830 6 c0 -3 -7 -12 -15 -20 -12 -13 -15 -13 -15 -1
0 7 3 17 7 20 8 8 23 9 23 1z m-2020 -19 c0 -8 -4 -15 -10 -15 -5 0 -10 7 -10
15 0 8 5 15 10 15 6 0 10 -7 10 -15z m2237 -15 c9 0 14 -2 11 -5 -3 -4 -17 -3
-31 0 -18 5 -24 12 -20 22 5 13 7 13 15 -1 5 -9 16 -16 25 -16z m333 11 c0 -6
-4 -13 -10 -16 -5 -3 -10 1 -10 9 0 9 5 16 10 16 6 0 10 -4 10 -9z m-2384 -66
c-10 -11 -17 -12 -22 -4 -3 6 -1 15 6 19 7 4 10 15 7 23 -3 9 -1 18 6 20 18 6
21 -41 3 -58z m1144 44 c0 -5 -4 -9 -10 -9 -5 0 -10 7 -10 16 0 8 5 12 10 9 6
-3 10 -10 10 -16z m980 2 c0 -12 -3 -12 -12 -3 -8 8 -15 9 -25 1 -13 -11 -19
2 -7 14 12 11 44 3 44 -12z m-1950 -1 c0 -5 -7 -7 -15 -4 -8 4 -15 1 -15 -5 0
-6 -9 -11 -20 -11 -27 0 -25 18 3 23 39 8 47 7 47 -3z m138 -15 c-3 -3 -9 2
-12 12 -6 14 -5 15 5 6 7 -7 10 -15 7 -18z m1662 15 c0 -5 -2 -10 -4 -10 -3 0
-8 5 -11 10 -3 6 -1 10 4 10 6 0 11 -4 11 -10z m223 -28 c4 11 7 -11 7 -58 0
-6 -34 -6 -169 -5 -38 1 -40 3 -39 32 1 17 4 25 8 19 6 -9 9 -9 14 -1 5 7 34
11 72 10 36 -1 68 1 71 5 3 3 12 1 19 -5 8 -7 14 -6 17 3z m-2885 -66 c-27
-49 -35 -47 -35 10 l0 55 23 -22 c19 -18 21 -25 12 -43z m32 54 c0 -5 -4 -10
-10 -10 -5 0 -10 5 -10 10 0 6 5 10 10 10 6 0 10 -4 10 -10z m2210 -14 c0 -11
-19 -15 -25 -6 -3 5 1 10 9 10 9 0 16 -2 16 -4z m1045 -26 c-13 -5 -13 -8 -2
-23 12 -17 14 -17 39 2 32 25 39 26 31 4 -4 -10 -2 -14 5 -9 6 3 13 2 17 -4 4
-6 11 -7 17 -4 8 5 9 -1 5 -17 -4 -13 -7 -27 -7 -31 0 -5 -5 -8 -11 -8 -6 0
-9 7 -6 14 4 10 1 13 -9 9 -7 -3 -14 -8 -14 -12 0 -4 -20 -7 -45 -7 -41 -1
-45 1 -45 23 0 12 5 23 11 23 8 0 8 4 2 13 -5 6 -10 22 -11 34 -1 20 2 21 19
10 16 -10 16 -13 4 -17z m354 9 c-14 -8 -29 -3 -29 11 0 4 9 6 21 3 15 -4 17
-8 8 -14z m-1629 -1 c0 7 5 10 11 6 8 -4 7 -9 -2 -15 -15 -9 -29 -3 -29 14 0
7 4 6 10 -3 7 -11 10 -11 10 -2z m60 -4 c0 -8 -5 -12 -10 -9 -6 4 -8 11 -5 16
9 14 15 11 15 -7z m992 -6 c-7 -7 -12 -8 -12 -2 0 14 12 26 19 19 2 -3 -1 -11
-7 -17z m-2442 -63 l-6 -50 -5 58 c-4 60 0 78 12 55 3 -7 3 -35 -1 -63z m1360
71 c0 -3 -4 -8 -10 -11 -5 -3 -10 -1 -10 4 0 6 5 11 10 11 6 0 10 -2 10 -4z
m-1300 -39 c0 -5 -4 -5 -10 -2 -5 3 -10 14 -10 23 0 15 2 15 10 2 5 -8 10 -19
10 -23z m785 13 c7 0 16 6 18 13 3 6 6 -5 6 -25 1 -21 2 -41 4 -45 1 -5 -10
-9 -24 -11 -24 -3 -26 -1 -27 45 0 26 2 42 5 36 2 -7 11 -13 18 -13z m-1154
-31 c-9 -23 -10 -22 -10 11 -1 23 2 31 9 24 7 -7 7 -19 1 -35z m-31 21 c0 -5
-2 -10 -4 -10 -3 0 -8 5 -11 10 -3 6 -1 10 4 10 6 0 11 -4 11 -10z m1433 -12
c7 -19 -6 -43 -24 -46 -19 -3 -31 21 -23 43 7 18 40 20 47 3z m524 6 c-3 -3
-12 -4 -19 -1 -8 3 -5 6 6 6 11 1 17 -2 13 -5z m-1033 -20 c3 -9 2 -12 -5 -9
-6 4 -16 -1 -24 -11 -11 -16 -16 -17 -27 -6 -11 11 -10 12 3 7 11 -4 18 0 22
14 6 25 22 27 31 5z m976 6 c0 -5 -5 -10 -11 -10 -5 0 -7 5 -4 10 3 6 8 10 11
10 2 0 4 -4 4 -10z m-1490 -43 c0 -32 -8 -33 -13 -1 -1 10 -6 25 -10 31 -6 9
-3 11 7 7 10 -4 16 -18 16 -37z m1441 20 c-13 -13 -26 -3 -16 12 3 6 11 8 17
5 6 -4 6 -10 -1 -17z m109 4 c0 -10 -6 -21 -14 -24 -19 -7 -25 0 -19 24 7 25
33 25 33 0z m-680 -12 c0 -5 -7 -9 -15 -9 -15 0 -20 12 -9 23 8 8 24 -1 24
-14z m553 -30 c7 0 38 -2 69 -2 32 -1 59 -4 59 -7 1 -3 2 -17 3 -32 2 -25 -2
-28 -28 -28 -22 0 -27 3 -19 11 13 13 5 51 -11 46 -6 -2 -10 -16 -8 -30 3 -24
0 -27 -26 -27 -60 0 -78 20 -44 47 16 14 16 14 0 9 -15 -4 -18 1 -17 32 2 30
3 32 6 10 2 -16 10 -28 16 -29z m-1833 33 c0 -5 -7 -9 -15 -9 -8 0 -15 4 -15
9 0 4 7 8 15 8 8 0 15 -4 15 -8z m1360 4 c0 -11 -19 -15 -25 -6 -3 5 1 10 9
10 9 0 16 -2 16 -4z m2060 -6 c0 -5 -3 -10 -7 -11 -5 0 -16 -2 -25 -4 -9 -2
-22 3 -29 11 -9 12 -5 14 25 14 20 0 36 -4 36 -10z m-633 -22 c-3 -8 -6 -5 -6
6 -1 11 2 17 5 13 3 -3 4 -12 1 -19z m-3022 -18 c3 -6 -1 -7 -9 -4 -18 7 -21
14 -7 14 6 0 13 -4 16 -10z m63 0 c-14 -8 -15 -16 -8 -36 13 -34 13 -36 -9
-25 -10 6 -21 23 -23 39 -4 25 -1 28 27 30 24 1 27 0 13 -8z m67 0 c-3 -5 -15
-10 -26 -10 -10 0 -19 5 -19 10 0 6 12 10 26 10 14 0 23 -4 19 -10z m1650 -11
c11 -16 1 -19 -13 -3 -7 8 -8 14 -3 14 5 0 13 -5 16 -11z m1854 2 c7 -5 9 -11
5 -14 -5 -3 -15 1 -22 9 -14 16 -5 18 17 5z m-3666 -14 c3 -8 -3 -14 -14 -14
-21 -2 -26 13 -6 20 6 3 13 6 13 6 1 1 4 -5 7 -12z m3791 -13 c0 -5 -4 -26 -8
-47 -8 -35 -11 -38 -39 -35 -37 4 -44 19 -20 44 13 12 14 19 5 22 -28 9 -10
27 25 26 21 -1 38 -5 37 -10z m-3574 -24 c0 -5 -5 -10 -11 -10 -5 0 -7 5 -4
10 3 6 8 10 11 10 2 0 4 -4 4 -10z m-268 -29 c11 -1 15 -6 12 -15 -3 -9 5 -19
22 -28 15 -7 29 -23 31 -36 3 -22 1 -22 -67 -20 -39 1 -70 5 -70 9 0 4 -3 15
-7 25 -4 12 -3 15 5 10 12 -7 17 9 14 45 -1 10 6 15 21 13 12 -1 30 -3 39 -3z
m669 -18 c13 -17 13 -17 -6 -3 -11 8 -22 16 -24 17 -2 2 0 3 6 3 6 0 17 -8 24
-17z m-541 -32 c0 -11 6 -21 13 -24 6 -2 -5 -4 -25 -4 -21 1 -38 5 -38 9 0 4
5 8 10 8 6 0 9 3 9 8 -3 16 2 22 16 22 8 0 15 -9 15 -19z m-260 -5 c0 -3 -4
-8 -10 -11 -5 -3 -10 -1 -10 4 0 6 5 11 10 11 6 0 10 -2 10 -4z m30 -19 c0 -8
-6 -14 -14 -14 -8 0 -12 6 -9 14 3 7 9 13 14 13 5 0 9 -6 9 -13z m4167 -49
c-2 -13 -4 -3 -4 22 0 25 2 35 4 23 2 -13 2 -33 0 -45z m-4337 42 c0 -5 -5
-10 -11 -10 -5 0 -7 5 -4 10 3 6 8 10 11 10 2 0 4 -4 4 -10z m117 -6 c-3 -3
-12 -4 -19 -1 -8 3 -5 6 6 6 11 1 17 -2 13 -5z m1903 -15 c0 -5 -3 -8 -7 -8
-20 3 -33 -2 -33 -14 0 -7 -9 -13 -20 -14 -29 -2 -24 12 12 35 31 20 48 20 48
1z m2414 -14 c-4 -8 -8 -15 -10 -15 -2 0 -4 7 -4 15 0 8 4 15 10 15 5 0 7 -7
4 -15z m-3464 -35 c0 -5 -2 -10 -4 -10 -3 0 -8 5 -11 10 -3 6 -1 10 4 10 6 0
11 -4 11 -10z m1418 -36 c-5 -13 -48 -14 -45 -1 1 7 -6 11 -15 11 -14 -1 -16
2 -7 18 10 19 11 19 41 0 16 -11 28 -23 26 -28z m-1478 26 c0 -5 -5 -10 -11
-10 -8 0 -7 -6 2 -17 12 -15 12 -16 -3 -10 -10 3 -18 2 -18 -3 0 -6 -8 -10
-17 -10 -16 0 -16 -2 -3 -11 12 -8 11 -9 -5 -5 -26 7 -50 -8 -40 -25 6 -9 4
-11 -7 -6 -9 3 -21 0 -27 -6 -8 -8 -14 -8 -22 0 -7 7 9 22 55 51 35 23 67 46
71 52 8 13 25 13 25 0z m2576 -4 c10 -8 16 -17 13 -21 -4 -3 -14 1 -23 10 -16
16 -41 12 -31 -5 3 -5 0 -12 -7 -16 -7 -4 -10 -4 -6 1 4 4 2 15 -5 23 -9 13
-9 14 1 8 6 -4 12 -2 12 3 0 15 23 14 46 -3z m-2441 -6 c3 -5 1 -10 -4 -10 -6
0 -11 5 -11 10 0 6 2 10 4 10 3 0 8 -4 11 -10z m3320 0 c-3 -5 -1 -10 4 -10 6
0 11 -5 11 -11 0 -8 -5 -8 -15 1 -13 11 -12 30 1 30 3 0 2 -4 -1 -10z m130
-10 c-3 -5 -10 -10 -16 -10 -5 0 -9 5 -9 10 0 6 7 10 16 10 8 0 12 -4 9 -10z
m-2627 -28 c2 -7 0 -12 -5 -11 -20 3 -34 -2 -28 -11 3 -5 -3 -10 -15 -10 -17
0 -19 3 -10 19 16 31 49 38 58 13z m2169 -4 c-3 -8 -6 -5 -6 6 -1 11 2 17 5
13 3 -3 4 -12 1 -19z m-532 3 c3 -6 -4 -9 -15 -8 -11 1 -20 5 -20 9 0 11 28
10 35 -1z m75 -25 c0 -2 -11 -1 -25 2 -14 2 -22 8 -19 13 4 8 44 -6 44 -15z
m-1074 -27 c19 -22 19 -22 -3 -8 -13 8 -23 17 -23 21 0 12 6 9 26 -13z m1131
-21 c18 -18 33 -36 33 -41 0 -10 -80 55 -80 66 0 14 15 7 47 -25z m936 15 c4
-3 -1 -12 -10 -18 -15 -11 -15 -15 -3 -30 17 -21 23 -68 7 -62 -14 4 -28 74
-21 100 6 18 16 22 27 10z m-3818 -13 c3 -5 -3 -10 -14 -10 -12 0 -21 5 -21
10 0 6 6 10 14 10 8 0 18 -4 21 -10z m979 -16 c8 -22 8 -24 -8 -24 -15 0 -28
24 -19 34 11 10 21 7 27 -10z m-1030 -15 c-10 -4 -15 -8 -9 -8 14 -1 -26 -27
-55 -36 -22 -6 -20 -2 14 28 24 21 45 33 54 29 13 -4 12 -7 -4 -13z m1001 -19
c0 -8 -14 -18 -30 -23 -18 -5 -40 -23 -53 -43 -12 -19 -27 -32 -32 -29 -17 10
-11 23 27 60 26 25 42 34 56 29 16 -5 19 -3 14 11 -5 11 -3 15 5 13 7 -3 13
-11 13 -18z m-974 -24 c5 3 9 1 9 -4 0 -6 -11 -9 -24 -8 -19 1 -22 4 -13 15 8
9 12 10 15 2 2 -6 8 -9 13 -5z m3506 -23 c-3 -10 -5 -4 -5 12 0 17 2 24 5 18
2 -7 2 -21 0 -30z m-1582 9 c-3 -3 -11 0 -18 7 -9 10 -8 11 6 5 10 -3 15 -9
12 -12z m-2035 -17 c7 -9 10 -19 6 -22 -4 -4 -11 -2 -15 5 -8 14 -41 6 -41
-10 0 -6 -6 -8 -13 -5 -15 6 -43 -31 -39 -50 2 -7 -2 -13 -8 -13 -6 0 -8 5 -5
10 8 13 -1 13 -28 -1 -32 -17 -32 -17 -6 -46 19 -20 20 -24 5 -16 -11 6 -31 7
-47 3 -15 -5 -30 -5 -34 -2 -3 4 -15 -4 -26 -18 -17 -21 -19 -22 -17 -6 3 16
152 132 198 153 8 4 21 13 28 20 17 17 27 16 42 -2z m60 5 c0 -5 -5 -10 -11
-10 -5 0 -7 5 -4 10 3 6 8 10 11 10 2 0 4 -4 4 -10z m-359 -199 c-6 -10 -7
-21 -4 -25 3 -3 1 -6 -5 -6 -6 0 -9 -7 -5 -16 5 -15 3 -15 -20 1 -15 9 -24 21
-21 27 3 5 8 7 11 4 2 -2 13 4 24 15 24 24 33 24 20 0z m-66 -51 c3 -5 1 -10
-4 -10 -6 0 -11 5 -11 10 0 6 2 10 4 10 3 0 8 -4 11 -10z m-4 -43 c-7 -7 -20
-6 -38 2 -20 9 -24 14 -13 21 18 11 64 -10 51 -23z m-91 -17 c0 -5 -5 -10 -11
-10 -5 0 -7 5 -4 10 3 6 8 10 11 10 2 0 4 -4 4 -10z m4103 -24 c23 -18 21 -26
-5 -23 -26 2 -48 18 -41 30 6 11 26 8 46 -7z m-4104 -20 l23 -25 -28 3 c-15 2
-30 8 -32 14 -2 8 -12 8 -30 1 l-27 -9 24 20 c30 26 43 25 70 -4z m4171 -33
c8 -7 24 -19 35 -27 11 -8 17 -17 13 -21 -4 -4 -22 7 -40 24 -18 17 -36 31
-40 31 -5 0 -8 5 -8 11 0 10 13 5 40 -18z m-4250 -18 c5 3 10 2 10 -4 0 -15
-18 -23 -26 -10 -4 6 -19 9 -36 5 l-29 -6 28 24 c27 24 28 24 35 5 4 -11 12
-17 18 -14z m-90 -46 c0 -11 -50 -32 -58 -25 -3 3 6 14 19 25 24 19 39 19 39
0z m4468 -43 c-7 -8 -15 -12 -17 -11 -5 6 10 25 20 25 5 0 4 -6 -3 -14z m45
-16 c7 -6 31 -24 55 -41 24 -16 40 -34 36 -40 -4 -8 -9 -7 -14 1 -4 7 -19 13
-33 13 -14 0 -28 6 -31 13 -4 9 -16 12 -38 9 -30 -5 -31 -4 -9 5 18 8 21 13
12 24 -17 20 1 34 22 16z m-4653 -51 c0 -4 -7 -6 -15 -3 -8 4 -15 10 -15 15 0
4 7 6 15 3 8 -4 15 -10 15 -15z"/>
<path d="M3670 3810 c0 -5 5 -10 11 -10 5 0 7 5 4 10 -3 6 -8 10 -11 10 -2 0
-4 -4 -4 -10z"/>
<path d="M3717 3653 c2 -27 3 -110 3 -185 0 -75 4 -139 8 -142 5 -3 6 33 4 79
-2 46 0 91 6 100 5 11 6 33 1 54 -5 22 -4 37 2 39 6 3 5 9 -2 18 -8 10 -9 18
-2 25 7 7 7 18 -1 35 -16 35 -21 30 -19 -23z"/>
<path d="M3730 3110 c0 -5 5 -10 10 -10 6 0 10 5 10 10 0 6 -4 10 -10 10 -5 0
-10 -4 -10 -10z"/>
<path d="M3732 2950 c0 -14 2 -19 5 -12 2 6 2 18 0 25 -3 6 -5 1 -5 -13z"/>
<path d="M3770 2211 c0 -16 -7 -34 -15 -41 -13 -11 -6 -19 47 -56 35 -23 76
-53 92 -66 25 -19 29 -20 23 -5 -4 10 -7 21 -7 23 0 2 -6 4 -14 4 -8 0 -17 14
-21 30 -4 17 -10 30 -15 30 -4 0 -6 -10 -3 -21 6 -22 6 -22 -25 -3 -18 10 -32
22 -32 25 0 4 -9 11 -21 14 -13 5 -17 10 -11 18 13 16 21 77 10 77 -4 0 -8
-13 -8 -29z"/>
<path d="M3915 2204 c-12 -25 -14 -39 -7 -42 7 -2 9 -15 5 -33 -4 -22 -2 -29
11 -29 9 0 16 5 16 10 0 6 -6 10 -12 10 -9 0 -10 3 -2 8 14 9 24 85 14 101 -4
8 -13 -1 -25 -25z"/>
<path d="M3960 2179 c0 -5 9 -9 20 -9 11 0 20 4 20 8 0 4 -9 8 -20 9 -11 1
-20 -2 -20 -8z"/>
<path d="M4022 2018 c-1 -21 -5 -38 -10 -38 -4 0 -24 14 -45 31 -20 17 -37 26
-37 21 0 -11 90 -76 96 -69 3 3 4 25 1 48 -3 43 -4 43 -5 7z"/>
<path d="M3346 2362 c-2 -4 4 -8 14 -8 10 0 16 4 14 8 -3 4 -9 8 -14 8 -5 0
-11 -4 -14 -8z"/>
<path d="M3141 2321 c-11 -7 -11 -9 0 -13 20 -7 50 3 43 13 -7 11 -25 11 -43
0z"/>
<path d="M3310 2320 c0 -5 5 -10 10 -10 6 0 10 5 10 10 0 6 -4 10 -10 10 -5 0
-10 -4 -10 -10z"/>
<path d="M3182 2229 c3 -95 18 -99 18 -5 0 45 -4 76 -10 76 -6 0 -9 -28 -8
-71z"/>
<path d="M3390 2273 c0 -19 -5 -23 -32 -24 -18 0 -27 -3 -20 -6 6 -2 12 -16
12 -29 0 -28 15 -31 29 -6 9 15 10 15 11 -5 0 -13 4 -23 9 -23 5 0 8 21 6 48
-2 26 1 52 6 58 5 7 3 11 -6 11 -9 0 -15 -10 -15 -24z"/>
<path d="M2934 2163 c2 -27 -1 -58 -6 -70 -5 -17 -4 -23 7 -23 12 0 15 15 15
70 0 39 -4 70 -9 70 -5 0 -8 -21 -7 -47z"/>
<path d="M2860 2179 c0 -5 5 -7 10 -4 6 3 10 8 10 11 0 2 -4 4 -10 4 -5 0 -10
-5 -10 -11z"/>
<path d="M3096 2182 c-3 -6 3 -12 15 -15 12 -3 19 -1 16 6 -5 15 -24 20 -31 9z"/>
<path d="M2698 2152 c-3 -12 2 -23 13 -31 23 -13 23 -11 5 23 -12 24 -14 24
-18 8z"/>
<path d="M3120 2140 c0 -5 6 -10 14 -10 8 0 18 5 21 10 3 6 -3 10 -14 10 -12
0 -21 -4 -21 -10z"/>
<path d="M2790 2124 c0 -8 5 -12 10 -9 6 3 10 10 10 16 0 5 -4 9 -10 9 -5 0
-10 -7 -10 -16z"/>
<path d="M2830 2129 c0 -5 7 -9 15 -9 21 0 19 -20 -2 -22 -10 0 -23 -2 -30 -2
-6 -1 -15 -5 -19 -9 -4 -4 -18 0 -31 8 -13 9 -23 12 -23 7 0 -20 49 -33 103
-29 55 4 93 17 50 17 -16 0 -19 5 -16 24 4 20 1 24 -21 24 -14 0 -26 -4 -26
-9z"/>
<path d="M3183 2105 c-1 -19 3 -35 8 -35 5 0 9 16 9 35 0 19 -4 35 -8 35 -4 0
-8 -16 -9 -35z"/>
<path d="M3140 2110 c0 -5 5 -10 10 -10 6 0 10 5 10 10 0 6 -4 10 -10 10 -5 0
-10 -4 -10 -10z"/>
<path d="M3110 2100 c0 -5 5 -10 11 -10 5 0 7 5 4 10 -3 6 -8 10 -11 10 -2 0
-4 -4 -4 -10z"/>
<path d="M3255 2099 c-11 -17 1 -21 15 -4 8 9 8 15 2 15 -6 0 -14 -5 -17 -11z"/>
<path d="M3072 2070 c0 -14 2 -19 5 -12 2 6 2 18 0 25 -3 6 -5 1 -5 -13z"/>
<path d="M2938 2055 c-3 -5 -4 -25 -2 -42 4 -39 -3 -41 -40 -12 -15 12 -29 19
-32 16 -3 -2 18 -19 45 -36 27 -18 65 -45 83 -62 18 -16 38 -27 44 -25 22 8
174 119 174 128 0 4 -27 -12 -61 -37 -34 -25 -65 -45 -69 -45 -4 0 -5 23 -2
50 3 31 1 50 -6 50 -6 0 -8 -16 -5 -40 6 -40 -3 -50 -24 -29 -8 8 -13 8 -17 0
-4 -6 -4 -11 1 -11 4 0 8 -11 8 -25 0 -14 -2 -25 -3 -25 -2 0 -21 12 -42 28
-35 24 -39 32 -42 77 -2 28 -6 46 -10 40z m122 -115 c0 -5 -2 -10 -4 -10 -3 0
-8 5 -11 10 -3 6 -1 10 4 10 6 0 11 -4 11 -10z"/>
<path d="M4927 2703 c-4 -3 -7 -11 -7 -17 0 -6 5 -5 12 2 6 6 9 14 7 17 -3 3
-9 2 -12 -2z"/>
<path d="M4825 1800 c-3 -5 -1 -10 4 -10 6 0 11 5 11 10 0 6 -2 10 -4 10 -3 0
-8 -4 -11 -10z"/>
<path d="M4630 1787 c0 -8 7 -14 15 -14 11 0 12 4 4 14 -6 7 -13 13 -15 13 -2
0 -4 -6 -4 -13z"/>
<path d="M4771 1774 c0 -11 3 -14 6 -6 3 7 2 16 -1 19 -3 4 -6 -2 -5 -13z"/>
<path d="M4767 1707 c-2 -6 2 -18 9 -25 12 -11 14 -8 14 13 0 26 -14 34 -23
12z"/>
<path d="M4774 1607 c-4 -7 -3 -9 1 -4 5 4 16 0 26 -9 16 -15 17 -18 3 -39
-15 -23 -15 -23 40 -27 54 -3 56 -2 55 22 -1 17 -3 19 -6 8 -3 -13 -15 -18
-40 -18 -28 0 -34 3 -29 16 12 31 -34 79 -50 51z"/>
<path d="M4610 1541 c0 -14 44 -21 55 -9 7 8 5 9 -7 5 -10 -3 -20 -2 -23 3 -8
12 -25 13 -25 1z"/>
<path d="M4728 1533 c7 -3 16 -2 19 1 4 3 -2 6 -13 5 -11 0 -14 -3 -6 -6z"/>
<path d="M4892 1475 c1 -20 4 -31 8 -25 7 11 2 60 -6 60 -2 0 -3 -16 -2 -35z"/>
<path d="M4690 1490 c0 -5 5 -10 10 -10 6 0 10 5 10 10 0 6 -4 10 -10 10 -5 0
-10 -4 -10 -10z"/>
<path d="M4750 1445 c7 -8 17 -15 22 -15 6 0 5 7 -2 15 -7 8 -17 15 -22 15 -6
0 -5 -7 2 -15z"/>
<path d="M4902 1383 c12 -45 28 -77 35 -70 2 3 -3 19 -11 36 -9 17 -16 34 -15
38 3 18 -2 33 -10 33 -6 0 -5 -15 1 -37z"/>
<path d="M1075 2320 c3 -5 8 -10 11 -10 2 0 4 5 4 10 0 6 -5 10 -11 10 -5 0
-7 -4 -4 -10z"/>
<path d="M1040 2290 c0 -5 5 -10 10 -10 6 0 10 5 10 10 0 6 -4 10 -10 10 -5 0
-10 -4 -10 -10z"/>
<path d="M1126 2150 c6 -35 4 -39 -10 -34 -10 4 -16 1 -16 -9 0 -8 -19 -27
-43 -40 -47 -28 -92 -71 -50 -49 12 7 27 18 35 25 7 7 35 26 61 42 38 24 47
34 42 50 -4 11 -7 28 -6 38 0 9 -5 17 -10 17 -5 0 -7 -17 -3 -40z"/>
<path d="M972 2168 c-17 -17 -15 -33 3 -18 8 6 19 9 24 5 7 -3 8 0 5 9 -7 19
-16 20 -32 4z"/>
<path d="M930 2110 l-35 -7 38 -2 c20 0 37 4 37 9 0 6 -1 9 -2 9 -2 -1 -19 -5
-38 -9z"/>
<path d="M985 2110 c-3 -5 -1 -10 4 -10 6 0 11 5 11 10 0 6 -2 10 -4 10 -3 0
-8 -4 -11 -10z"/>
<path d="M813 2103 c9 -2 23 -2 30 0 6 3 -1 5 -18 5 -16 0 -22 -2 -12 -5z"/>
<path d="M480 2073 c0 -5 4 -13 8 -20 6 -9 11 -7 20 7 11 17 10 20 -8 20 -11
0 -20 -3 -20 -7z"/>
<path d="M730 2024 c0 -8 5 -12 10 -9 6 4 8 11 5 16 -9 14 -15 11 -15 -7z"/>
<path d="M486 1998 c2 -50 5 -55 14 -31 9 22 3 63 -9 63 -4 0 -6 -15 -5 -32z"/>
<path d="M644 1976 c-27 -31 -28 -35 -11 -40 13 -3 17 0 13 9 -2 7 3 20 13 29
22 20 35 21 27 1 -3 -8 -1 -15 5 -15 6 0 7 -4 4 -10 -3 -5 -1 -10 4 -10 15 0
13 31 -3 53 -17 22 -16 23 -52 -17z"/>
<path d="M440 1965 c0 -25 4 -35 16 -35 11 0 14 5 10 16 -3 9 -6 24 -6 35 0
10 -4 19 -10 19 -5 0 -10 -16 -10 -35z"/>
<path d="M920 1980 c0 -5 5 -10 11 -10 5 0 7 5 4 10 -3 6 -8 10 -11 10 -2 0
-4 -4 -4 -10z"/>
<path d="M361 1964 c0 -11 3 -14 6 -6 3 7 2 16 -1 19 -3 4 -6 -2 -5 -13z"/>
<path d="M880 1940 c-8 -5 -12 -12 -9 -15 4 -3 12 1 19 10 14 17 11 19 -10 5z"/>
<path d="M360 1925 c0 -8 2 -15 4 -15 2 0 6 7 10 15 3 8 1 15 -4 15 -6 0 -10
-7 -10 -15z"/>
<path d="M480 1885 c0 -19 -5 -25 -22 -26 -22 -1 -22 -1 2 -8 33 -10 39 -6 38
29 -1 36 -18 41 -18 5z"/>
<path d="M800 1879 c0 -5 5 -7 10 -4 6 3 10 8 10 11 0 2 -4 4 -10 4 -5 0 -10
-5 -10 -11z"/>
<path d="M356 1853 c-6 -14 -5 -15 5 -6 7 7 10 15 7 18 -3 3 -9 -2 -12 -12z"/>
<path d="M770 1863 c-8 -4 -21 -12 -28 -20 -8 -7 -17 -11 -20 -9 -4 2 -18 -10
-31 -27 -23 -28 -21 -27 37 13 34 23 62 44 62 46 0 4 1 5 -20 -3z"/>
<path d="M560 1850 c0 -5 5 -10 11 -10 5 0 7 5 4 10 -3 6 -8 10 -11 10 -2 0
-4 -4 -4 -10z"/>
<path d="M643 1810 c-13 -5 -23 -11 -23 -14 0 -7 40 6 46 15 6 10 6 10 -23 -1z"/>
<path d="M480 1769 c0 -5 5 -7 10 -4 6 3 10 8 10 11 0 2 -4 4 -10 4 -5 0 -10
-5 -10 -11z"/>
<path d="M568 1772 c-29 -2 -48 -8 -52 -18 -3 -8 1 -14 10 -14 8 0 13 4 10 9
-3 5 14 11 39 13 25 2 45 0 45 -4 0 -5 -4 -8 -10 -8 -5 0 -10 -4 -10 -10 0 -5
13 -1 30 8 16 9 30 20 30 23 0 7 -7 7 -92 1z"/>
<path d="M372 1723 c-25 -5 -25 -26 0 -31 9 -2 18 6 21 18 3 11 4 19 4 19 -1
-1 -12 -4 -25 -6z"/>
<path d="M564 1708 l-19 -23 23 19 c12 11 22 21 22 23 0 8 -8 2 -26 -19z"/>
<path d="M474 1650 c-21 -16 -44 -30 -49 -30 -6 0 -19 -11 -29 -25 -10 -14
-25 -25 -32 -25 -8 0 -14 -3 -14 -8 0 -4 -16 -16 -35 -26 -19 -11 -35 -23 -35
-28 0 -10 52 24 168 109 63 47 81 63 69 63 -2 0 -21 -13 -43 -30z"/>
<path d="M338 1613 c7 -3 16 -2 19 1 4 3 -2 6 -13 5 -11 0 -14 -3 -6 -6z"/>
<path d="M1918 3463 c7 -3 16 -2 19 1 4 3 -2 6 -13 5 -11 0 -14 -3 -6 -6z"/>
<path d="M545 2190 c-3 -5 -1 -10 4 -10 6 0 11 5 11 10 0 6 -2 10 -4 10 -3 0
-8 -4 -11 -10z"/>
<path d="M1352 3317 c1 -155 3 -266 5 -247 3 19 9 41 15 47 7 9 7 13 -2 13
-10 0 -10 3 0 15 9 10 9 15 1 15 -6 0 -11 7 -11 16 0 8 3 13 8 11 4 -3 8 6 8
19 1 13 -3 24 -8 24 -10 0 -8 23 8 79 5 17 4 22 -4 17 -16 -9 -15 7 0 22 9 9
9 17 0 34 -9 18 -11 113 -2 113 2 0 4 21 5 47 1 31 -3 49 -11 52 -11 4 -13
-47 -12 -277z"/>
<path d="M1351 2990 c0 -25 3 -39 6 -32 2 6 9 10 14 6 12 -7 11 -2 -6 37 l-14
34 0 -45z"/>
<path d="M1463 2363 c-22 -8 -14 -23 11 -21 19 2 22 5 14 15 -6 7 -11 13 -12
12 0 0 -7 -3 -13 -6z"/>
<path d="M1394 2319 c-3 -5 39 -9 92 -9 54 0 95 2 92 5 -9 10 -178 13 -184 4z"/>
<path d="M1741 2283 c0 -10 4 -36 8 -58 9 -40 9 -39 10 18 0 32 -3 57 -9 57
-5 0 -10 -8 -9 -17z"/>
<path d="M2116 2289 c3 -6 -5 -23 -18 -37 -13 -15 -23 -34 -22 -42 1 -8 2 -21
3 -29 0 -7 7 -11 15 -8 7 3 19 0 25 -6 8 -8 11 8 11 61 0 44 -4 72 -11 72 -5
0 -7 -5 -3 -11z m4 -69 c0 -20 -5 -30 -15 -30 -18 0 -20 31 -3 48 17 17 18 16
18 -18z"/>
<path d="M1471 2244 c-6 -15 -9 -29 -6 -32 2 -3 0 -11 -6 -19 -9 -10 -7 -13
10 -13 22 0 28 14 11 25 -20 13 -10 27 15 21 22 -6 25 -3 25 19 0 34 -33 33
-49 -1z"/>
<path d="M1850 2241 c0 -17 5 -33 10 -36 6 -4 10 8 10 29 0 20 -4 36 -10 36
-5 0 -10 -13 -10 -29z"/>
<path d="M1800 2235 c0 -8 2 -15 4 -15 2 0 6 7 10 15 3 8 1 15 -4 15 -6 0 -10
-7 -10 -15z"/>
<path d="M1890 2239 c0 -5 5 -7 10 -4 6 3 10 8 10 11 0 2 -4 4 -10 4 -5 0 -10
-5 -10 -11z"/>
<path d="M1386 2212 c-4 -7 -4 -16 -1 -22 8 -13 95 -73 95 -65 0 10 -23 30
-48 44 -13 7 -27 22 -31 33 -5 14 -10 18 -15 10z"/>
<path d="M1500 2150 c0 -5 5 -10 11 -10 5 0 7 5 4 10 -3 6 -8 10 -11 10 -2 0
-4 -4 -4 -10z"/>
<path d="M1746 2145 c4 -8 8 -15 10 -15 2 0 4 7 4 15 0 8 -4 15 -10 15 -5 0
-7 -7 -4 -15z"/>
<path d="M1494 2111 c4 -6 60 -47 124 -91 64 -45 139 -97 165 -117 36 -27 51
-33 60 -24 8 8 7 11 -6 11 -9 0 -37 15 -63 33 -39 27 -43 33 -25 35 22 3 28
17 12 26 -5 3 -14 -1 -21 -9 -10 -12 -15 -12 -38 3 -15 9 -29 19 -32 23 -8 9
-132 94 -159 108 -14 8 -21 9 -17 2z"/>
<path d="M1855 2110 c-3 -5 -1 -10 4 -10 6 0 11 5 11 10 0 6 -2 10 -4 10 -3 0
-8 -4 -11 -10z"/>
<path d="M2109 2100 l-24 -20 27 13 c16 6 28 15 28 20 0 11 -6 9 -31 -13z"/>
<path d="M2037 2083 c-4 -3 -7 -11 -7 -17 0 -6 5 -5 12 2 6 6 9 14 7 17 -3 3
-9 2 -12 -2z"/>
<path d="M2029 2041 c-13 -11 -21 -22 -18 -25 3 -3 16 5 29 19 28 30 22 33
-11 6z"/>
<path d="M1846 2025 c4 -8 8 -15 10 -15 2 0 4 7 4 15 0 8 -4 15 -10 15 -5 0
-7 -7 -4 -15z"/>
<path d="M1975 1998 c-25 -14 -96 -83 -74 -72 17 10 105 84 98 84 -2 0 -13 -6
-24 -12z"/>
<path d="M1830 1919 c0 -11 5 -17 10 -14 6 3 10 13 10 21 0 8 -4 14 -10 14 -5
0 -10 -9 -10 -21z"/>
<path d="M1865 1910 c-3 -5 -1 -10 4 -10 6 0 11 5 11 10 0 6 -2 10 -4 10 -3 0
-8 -4 -11 -10z"/>
</g>
</svg>
