<?xml version="1.0" standalone="no"?>
<!DOCTYPE svg PUBLIC "-//W3C//DTD SVG 20010904//EN"
 "http://www.w3.org/TR/2001/REC-SVG-20010904/DTD/svg10.dtd">
<svg version="1.0" xmlns="http://www.w3.org/2000/svg"
 width="500.000000pt" height="500.000000pt" viewBox="0 0 500.000000 500.000000"
 preserveAspectRatio="xMidYMid meet">

<g transform="translate(0.000000,500.000000) scale(0.100000,-0.100000)"
fill="#000000" stroke="none">
<path d="M0 2500 l0 -2500 2500 0 2500 0 0 2500 0 2500 -2500 0 -2500 0 0
-2500z m3508 1333 c17 -7 16 -14 -14 -88 -25 -63 -28 -66 -54 -60 -28 6 -28 5
-90 -152 -34 -86 -58 -159 -53 -160 36 -13 38 -21 18 -78 -31 -92 -32 -92
-105 -65 -70 26 -71 30 -31 123 19 45 23 48 48 43 27 -6 29 -4 71 106 24 62
52 135 63 161 18 45 18 48 1 54 -9 4 -20 11 -23 16 -6 8 20 88 42 129 10 19 3
20 127 -29z m-1923 -99 c30 -68 31 -88 6 -100 -18 -8 -16 -16 35 -129 29 -66
57 -119 61 -118 4 1 16 5 25 8 14 6 24 -5 48 -56 16 -35 30 -69 30 -75 0 -9
-108 -64 -126 -64 -3 0 -18 30 -35 67 l-30 68 20 16 c12 10 21 20 21 23 0 3
-23 57 -51 121 -50 111 -52 114 -79 109 -26 -6 -30 -2 -54 51 -14 32 -26 64
-26 71 0 13 90 61 118 63 7 1 23 -24 37 -55z m2466 -161 c27 -14 49 -33 49
-42 0 -27 -66 -126 -81 -122 -8 2 -20 4 -27 5 -7 0 -49 -60 -92 -134 l-79
-135 22 -17 22 -17 -30 -56 c-17 -31 -35 -61 -42 -66 -16 -14 -123 46 -123 68
0 28 64 124 80 120 8 -3 20 -6 27 -8 7 -2 47 56 92 135 l80 138 -21 18 -21 17
34 61 c18 34 40 62 47 62 8 0 36 -12 63 -27z m-3066 -115 c47 -62 47 -62 26
-79 -20 -17 -20 -18 65 -128 48 -61 90 -111 95 -111 4 0 11 5 14 10 13 21 36
8 75 -43 22 -30 40 -59 40 -65 0 -11 -92 -82 -107 -82 -5 0 -28 25 -52 57 -39
52 -40 57 -25 74 9 10 14 22 13 28 -2 5 -42 58 -87 116 -78 99 -85 105 -101
91 -10 -9 -20 -16 -23 -16 -11 0 -88 107 -88 121 1 10 94 89 106 89 1 0 23
-28 49 -62z m1723 -243 c309 -14 676 -114 937 -255 504 -272 698 -696 500
-1089 -201 -400 -806 -697 -1483 -729 -496 -24 -932 60 -1289 248 -145 76
-226 134 -336 239 -150 144 -232 294 -257 469 -25 166 27 353 139 502 222 296
620 503 1134 590 127 21 388 40 482 34 28 -2 105 -6 173 -9z"/>
<path d="M3394 3795 c-7 -19 -14 -36 -14 -39 0 -3 57 -26 66 -26 4 0 26 71 22
74 -1 1 -16 7 -31 14 -27 11 -29 10 -43 -23z"/>
<path d="M3205 3318 c-12 -31 -12 -34 8 -45 35 -19 47 -15 62 20 12 30 12 33
-8 44 -35 19 -47 15 -62 -19z"/>
<path d="M1503 3728 c-26 -12 -28 -26 -12 -62 10 -22 14 -23 38 -13 41 17 44
23 27 56 -18 34 -20 35 -53 19z"/>
<path d="M1678 3334 c-33 -17 -32 -16 -13 -54 14 -27 17 -28 45 -19 34 12 34
14 19 58 -12 35 -14 36 -51 15z"/>
<path d="M3975 3520 c-8 -16 -15 -31 -15 -33 0 -6 60 -31 63 -26 36 51 37 58
15 74 -32 22 -46 19 -63 -15z"/>
<path d="M3730 3098 l-19 -32 31 -19 c33 -20 33 -19 60 27 8 16 6 22 -13 37
-32 25 -36 24 -59 -13z"/>
<path d="M896 3441 c-18 -20 -16 -31 12 -63 13 -16 16 -16 43 4 l28 21 -20 29
c-24 33 -39 35 -63 9z"/>
<path d="M1177 3089 l-27 -24 23 -29 c23 -28 24 -29 50 -11 33 21 33 27 4 61
l-23 26 -27 -23z"/>
<path d="M2412 2669 c-29 -5 -87 -25 -128 -43 -310 -144 -382 -553 -139 -791
245 -240 665 -169 810 137 94 197 52 415 -108 565 -118 110 -281 160 -435 132z"/>
</g>
</svg>
