<?xml version="1.0" standalone="no"?>
<!DOCTYPE svg PUBLIC "-//W3C//DTD SVG 20010904//EN"
 "http://www.w3.org/TR/2001/REC-SVG-20010904/DTD/svg10.dtd">
<svg version="1.0" xmlns="http://www.w3.org/2000/svg"
 width="64.000000pt" height="64.000000pt" viewBox="0 0 64.000000 64.000000"
 preserveAspectRatio="xMidYMid meet">

<g transform="translate(0.000000,64.000000) scale(0.100000,-0.100000)"
fill="#fac619" stroke="none">
<path d="M368 635 c-3 -3 -43 -12 -89 -20 -57 -10 -89 -21 -99 -33 -9 -11 -29
-23 -45 -29 -17 -5 -35 -19 -40 -30 -6 -12 -16 -27 -22 -35 -7 -8 -10 -23 -7
-35 4 -16 -2 -25 -25 -39 -29 -17 -42 -44 -22 -44 5 0 15 -41 22 -91 12 -91
35 -139 65 -139 8 0 14 -7 14 -15 0 -8 9 -20 20 -27 11 -7 20 -18 20 -25 0
-20 46 -44 72 -38 16 4 30 -1 46 -16 20 -18 28 -19 45 -10 12 6 58 16 102 24
66 10 82 16 90 35 5 12 19 22 30 22 26 0 45 18 45 41 0 10 12 27 26 38 24 19
25 22 12 57 -15 41 -50 69 -74 60 -10 -4 -25 1 -35 10 -15 13 -31 16 -73 11
-62 -6 -79 4 -62 38 8 18 24 26 68 35 41 8 59 16 63 30 3 10 19 23 36 29 37
13 45 33 30 79 -13 44 -76 92 -119 92 -16 0 -37 7 -48 15 -20 15 -37 19 -46
10z m25 -45 c12 -17 19 -19 41 -10 39 14 43 13 50 -14 4 -18 11 -23 26 -19 13
3 20 0 20 -8 0 -8 3 -24 6 -36 5 -19 1 -23 -30 -28 -24 -5 -36 -13 -36 -24 0
-17 -65 -41 -109 -41 -13 0 -21 -8 -23 -22 -2 -17 -11 -24 -33 -26 -40 -5 -47
-14 -39 -46 5 -20 11 -25 25 -21 11 3 28 8 40 11 15 4 22 0 26 -16 5 -20 10
-21 69 -14 57 6 64 4 64 -11 0 -15 7 -17 39 -12 29 4 41 1 45 -10 11 -27 6
-41 -14 -46 -15 -4 -20 -14 -20 -36 0 -28 -3 -31 -30 -31 -23 0 -33 -6 -40
-24 -7 -20 -18 -25 -62 -31 -29 -3 -69 -11 -88 -16 -28 -7 -37 -6 -47 7 -8 11
-23 15 -47 12 -31 -3 -37 -1 -45 24 -7 19 -15 26 -25 22 -11 -4 -17 4 -21 30
-6 32 -10 35 -31 30 -14 -4 -24 -2 -24 4 0 19 -21 167 -26 184 -4 12 2 19 22
24 23 6 26 10 21 40 -5 26 -2 34 13 39 12 4 17 12 13 22 -7 18 13 33 45 33 14
0 26 8 31 23 7 18 23 25 82 39 97 21 96 21 112 -2z"/>
</g>
</svg>
