<?xml version="1.0" standalone="no"?>
<!DOCTYPE svg PUBLIC "-//W3C//DTD SVG 20010904//EN"
 "http://www.w3.org/TR/2001/REC-SVG-20010904/DTD/svg10.dtd">
<svg version="1.0" xmlns="http://www.w3.org/2000/svg"
 width="64.000000pt" height="64.000000pt" viewBox="0 0 64.000000 64.000000"
 preserveAspectRatio="xMidYMid meet">

<g transform="translate(0.000000,64.000000) scale(0.100000,-0.100000)"
fill="#000000" stroke="none">
<path d="M110 530 c-19 -19 -20 -33 -20 -210 0 -177 1 -191 20 -210 19 -19 33
-20 210 -20 250 0 230 -20 230 230 0 177 -1 191 -20 210 -19 19 -33 20 -210
20 -177 0 -191 -1 -210 -20z m415 -210 l0 -205 -205 0 -205 0 -3 195 c-1 107
0 200 3 207 3 11 48 13 207 11 l203 -3 0 -205z"/>
<path d="M281 484 c-17 -19 -29 -25 -48 -21 -34 6 -62 -22 -56 -56 4 -19 -2
-31 -21 -48 -14 -12 -26 -30 -26 -39 0 -9 12 -27 26 -39 20 -17 25 -29 21 -49
-7 -37 17 -63 53 -55 22 4 33 -1 51 -21 29 -33 49 -33 78 0 18 20 29 25 51 21
36 -8 60 18 53 55 -4 20 1 32 21 49 14 12 26 30 26 39 0 9 -12 27 -26 39 -19
17 -25 29 -21 48 6 34 -22 62 -56 56 -19 -4 -31 2 -48 21 -12 14 -30 26 -39
26 -9 0 -27 -12 -39 -26z m59 -8 c0 -16 46 -35 80 -33 21 2 25 -2 22 -23 -3
-32 17 -80 34 -80 8 0 14 -9 14 -20 0 -11 -6 -20 -14 -20 -17 0 -37 -48 -34
-80 3 -21 -1 -25 -22 -22 -32 3 -80 -17 -80 -34 0 -8 -9 -14 -20 -14 -11 0
-20 6 -20 14 0 17 -48 37 -80 34 -21 -3 -25 1 -22 22 3 32 -17 80 -34 80 -8 0
-14 9 -14 20 0 11 6 20 14 20 17 0 37 48 34 80 -3 21 1 25 22 23 34 -2 80 17
80 33 0 8 9 14 20 14 11 0 20 -6 20 -14z"/>
<path d="M263 420 c-34 -21 -63 -66 -63 -100 0 -54 65 -120 118 -120 57 0 122
64 122 120 0 56 -65 120 -122 120 -13 0 -37 -9 -55 -20z m128 -29 c44 -45 39
-61 -21 -61 -48 0 -50 1 -70 40 -11 21 -20 42 -20 45 0 3 18 5 41 5 31 0 47
-6 70 -29z m-103 -31 l23 -40 -23 -40 c-13 -22 -26 -40 -30 -40 -16 0 -38 47
-38 80 0 33 22 80 38 80 4 0 17 -18 30 -40z m132 -66 c0 -8 -13 -29 -29 -45
-23 -23 -39 -29 -70 -29 -23 0 -41 2 -41 5 0 3 9 24 20 45 20 39 22 40 70 40
39 0 50 -4 50 -16z"/>
</g>
</svg>
